<svg id="Layer_1" data-name="Layer 1" xmlns="http://www.w3.org/2000/svg" viewBox="0 0 700 310"><defs><style>.cls-1,.cls-6,.cls-7{fill:none;stroke-miterlimit:10;}.cls-1,.cls-7{stroke:#f69259;}.cls-2{fill:#fbae40;}.cls-3{fill:#f58220;}.cls-4{fill:#404242;}.cls-5{fill:#fff;}.cls-6{stroke:#404242;stroke-width:0.5px;}.cls-7{stroke-width:2px;}.cls-8{fill:#f69259;}</style></defs><title>Untitled-1</title><rect class="cls-1" x="15.07" y="71.02" width="207" height="35" rx="5" ry="5"/><rect class="cls-2" x="15.07" y="156.42" width="207" height="35" rx="5" ry="5"/><rect class="cls-3" x="15.07" y="241.02" width="207" height="35" rx="5" ry="5"/><rect class="cls-1" x="255.53" y="70.52" width="429" height="35" rx="5" ry="5"/><path class="cls-3" d="M415,80v9.24a5.39,5.39,0,0,1-.68,2.77,4.52,4.52,0,0,1-2,1.83,6.92,6.92,0,0,1-3.07.63,5.73,5.73,0,0,1-4.13-1.4,5.08,5.08,0,0,1-1.48-3.87V80H406v9a3.59,3.59,0,0,0,.82,2.6,3.36,3.36,0,0,0,2.52.84q3.3,0,3.3-3.46V80Z"/><path class="cls-3" d="M425.51,91.19a2.82,2.82,0,0,1-1.15,2.43,5.55,5.55,0,0,1-3.3.84,7.78,7.78,0,0,1-3.47-.65v-2a8.64,8.64,0,0,0,3.55.88c1.41,0,2.12-.43,2.12-1.28a1,1,0,0,0-.24-.69,2.59,2.59,0,0,0-.77-.56,11.94,11.94,0,0,0-1.49-.67,7,7,0,0,1-2.53-1.44,2.67,2.67,0,0,1-.65-1.88A2.47,2.47,0,0,1,418.69,84a5.34,5.34,0,0,1,3.05-.77,8.69,8.69,0,0,1,3.6.77l-.74,1.73a8.08,8.08,0,0,0-2.94-.72c-1.21,0-1.82.35-1.82,1a1.07,1.07,0,0,0,.47.86,11,11,0,0,0,2.07,1,9.4,9.4,0,0,1,1.94,1,2.79,2.79,0,0,1,.9,1A2.82,2.82,0,0,1,425.51,91.19Z"/><path class="cls-3" d="M432.66,94.46A5.21,5.21,0,0,1,428.72,93a5.58,5.58,0,0,1-1.43-4,6.11,6.11,0,0,1,1.32-4.16,4.57,4.57,0,0,1,3.63-1.52,4.49,4.49,0,0,1,3.38,1.3,5,5,0,0,1,1.24,3.58v1.24h-7.2a3.48,3.48,0,0,0,.85,2.41,2.92,2.92,0,0,0,2.25.85,8.42,8.42,0,0,0,1.79-.18,9.25,9.25,0,0,0,1.77-.6v1.86a7,7,0,0,1-1.7.57A10.5,10.5,0,0,1,432.66,94.46ZM432.24,85a2.3,2.3,0,0,0-1.76.7,3.25,3.25,0,0,0-.78,2h4.9a3,3,0,0,0-.64-2A2.21,2.21,0,0,0,432.24,85Z"/><path class="cls-3" d="M444.9,83.27a5.87,5.87,0,0,1,1.14.1l-.23,2.14a4.17,4.17,0,0,0-1-.12,2.93,2.93,0,0,0-2.23.9,3.25,3.25,0,0,0-.86,2.33v5.65h-2.29V83.47h1.79l.31,1.9h.11A4.33,4.33,0,0,1,443,83.84,3.29,3.29,0,0,1,444.9,83.27Z"/><path class="cls-3" d="M453.48,94.27V80h2.33V94.27Z"/><path class="cls-3" d="M468.67,94.27h-2.31V87.63a3,3,0,0,0-.5-1.87,2,2,0,0,0-1.6-.61,2.55,2.55,0,0,0-2.13.86,4.73,4.73,0,0,0-.67,2.88v5.38h-2.3V83.47H461l.32,1.41h.12a3.19,3.19,0,0,1,1.39-1.19,4.61,4.61,0,0,1,2-.42q3.89,0,3.89,4Z"/><path class="cls-3" d="M475.71,92.61a5.76,5.76,0,0,0,1.68-.26v1.72a3.86,3.86,0,0,1-1,.28,6.29,6.29,0,0,1-1.24.11c-2.18,0-3.26-1.14-3.26-3.43V85.21h-1.48v-1l1.58-.84.78-2.28h1.42v2.4h3.08v1.74h-3.08V91a1.63,1.63,0,0,0,.41,1.22A1.5,1.5,0,0,0,475.71,92.61Z"/><path class="cls-3" d="M484.08,94.46A5.21,5.21,0,0,1,480.14,93a5.57,5.57,0,0,1-1.42-4A6.11,6.11,0,0,1,480,84.79a5.06,5.06,0,0,1,7-.22,5,5,0,0,1,1.24,3.58v1.24h-7.2a3.53,3.53,0,0,0,.85,2.41,2.94,2.94,0,0,0,2.26.85,8.39,8.39,0,0,0,1.78-.18,9.25,9.25,0,0,0,1.77-.6v1.86a7,7,0,0,1-1.7.57A10.5,10.5,0,0,1,484.08,94.46ZM483.66,85a2.26,2.26,0,0,0-1.75.7,3.25,3.25,0,0,0-.79,2H486a3,3,0,0,0-.64-2A2.21,2.21,0,0,0,483.66,85Z"/><path class="cls-3" d="M496.32,83.27a5.87,5.87,0,0,1,1.14.1l-.22,2.14a4.31,4.31,0,0,0-1-.12,2.93,2.93,0,0,0-2.23.9,3.25,3.25,0,0,0-.86,2.33v5.65h-2.29V83.47h1.8l.3,1.9h.12a4.22,4.22,0,0,1,1.4-1.53A3.29,3.29,0,0,1,496.32,83.27Z"/><path class="cls-3" d="M505.44,85.21H502.8v9.06h-2.3V85.21h-1.78V84.13l1.78-.7v-.7a3.92,3.92,0,0,1,.9-2.84,3.65,3.65,0,0,1,2.74-.92,7.21,7.21,0,0,1,2.38.4l-.6,1.74a5.11,5.11,0,0,0-1.62-.28,1.31,1.31,0,0,0-1.14.49,2.4,2.4,0,0,0-.36,1.45v.7h2.64Z"/><path class="cls-3" d="M513.88,94.27l-.46-1.5h-.08a4.48,4.48,0,0,1-1.57,1.34,5,5,0,0,1-2,.35,3.47,3.47,0,0,1-2.49-.85,3.26,3.26,0,0,1-.89-2.44,2.86,2.86,0,0,1,1.24-2.52,7.16,7.16,0,0,1,3.78-.92l1.86-.06v-.58a2.21,2.21,0,0,0-.48-1.55,2,2,0,0,0-1.5-.51,5,5,0,0,0-1.59.25,11.78,11.78,0,0,0-1.47.57l-.74-1.64a7.9,7.9,0,0,1,1.93-.7,8.75,8.75,0,0,1,2-.24,4.67,4.67,0,0,1,3.11.9,3.52,3.52,0,0,1,1,2.82v7.28Zm-3.42-1.56a2.89,2.89,0,0,0,2-.7,2.55,2.55,0,0,0,.75-2v-.94l-1.38.06a4.79,4.79,0,0,0-2.36.54,1.67,1.67,0,0,0-.74,1.48,1.42,1.42,0,0,0,.43,1.12A1.83,1.83,0,0,0,510.46,92.71Z"/><path class="cls-3" d="M523,94.46A4.69,4.69,0,0,1,519.28,93a6,6,0,0,1-1.28-4.1,6,6,0,0,1,1.33-4.19,5,5,0,0,1,3.86-1.47,7.09,7.09,0,0,1,3.07.64l-.69,1.84a7.09,7.09,0,0,0-2.4-.56q-2.8,0-2.81,3.72a4.5,4.5,0,0,0,.7,2.73,2.42,2.42,0,0,0,2.05.91,5.85,5.85,0,0,0,2.9-.76v2a4.78,4.78,0,0,1-1.31.52A8.25,8.25,0,0,1,523,94.46Z"/><path class="cls-3" d="M533,94.46A5.22,5.22,0,0,1,529.09,93a5.57,5.57,0,0,1-1.42-4A6.11,6.11,0,0,1,529,84.79a4.56,4.56,0,0,1,3.62-1.52,4.46,4.46,0,0,1,3.38,1.3,5,5,0,0,1,1.24,3.58v1.24H530a3.57,3.57,0,0,0,.85,2.41,3,3,0,0,0,2.26.85,8.32,8.32,0,0,0,1.78-.18,9.25,9.25,0,0,0,1.77-.6v1.86a6.88,6.88,0,0,1-1.69.57A10.61,10.61,0,0,1,533,94.46ZM532.61,85a2.28,2.28,0,0,0-1.75.7,3.31,3.31,0,0,0-.79,2H535a3,3,0,0,0-.65-2A2.19,2.19,0,0,0,532.61,85Z"/><rect class="cls-3" x="255.03" y="241.02" width="100" height="69.5" rx="5" ry="5"/><rect class="cls-3" x="365.03" y="241.02" width="100" height="69.5" rx="5" ry="5"/><rect class="cls-3" x="475.03" y="241.02" width="100" height="69.5" rx="5" ry="5"/><rect class="cls-3" x="585.03" y="241.02" width="100" height="69.5" rx="5" ry="5"/><rect class="cls-2" x="255.05" y="156.02" width="100" height="35" rx="5" ry="5"/><rect class="cls-2" x="365.05" y="156.02" width="100" height="35" rx="5" ry="5"/><rect class="cls-2" x="475.05" y="156.02" width="100" height="35" rx="5" ry="5"/><rect class="cls-2" x="585.05" y="156.02" width="100" height="35" rx="5" ry="5"/><path class="cls-4" d="M23.25,17.12,17.93,3.93h-.08c.06.81.08,1.64.08,2.48V17.12H17V2.84h1.55L23.58,15.4h.05L28.69,2.84H30.2V17.12h-1V6.3c0-.76,0-1.54.12-2.35h-.08L23.89,17.12Z"/><path class="cls-4" d="M42.63,11.79a6,6,0,0,1-1.26,4.06,4.34,4.34,0,0,1-3.47,1.46,4.49,4.49,0,0,1-2.46-.67,4.28,4.28,0,0,1-1.63-1.94,7,7,0,0,1-.57-2.91,5.94,5.94,0,0,1,1.26-4A4.33,4.33,0,0,1,38,6.3a4.26,4.26,0,0,1,3.43,1.47A6,6,0,0,1,42.63,11.79Zm-8.38,0a5.43,5.43,0,0,0,1,3.42,3.64,3.64,0,0,0,5.44,0,5.43,5.43,0,0,0,1-3.42,5.33,5.33,0,0,0-1-3.4,3.31,3.31,0,0,0-2.73-1.22,3.26,3.26,0,0,0-2.71,1.21A5.36,5.36,0,0,0,34.25,11.79Z"/><path class="cls-4" d="M52.83,17.12V10.23a3.41,3.41,0,0,0-.67-2.33,2.75,2.75,0,0,0-2.09-.73,3.63,3.63,0,0,0-2.79,1,4.52,4.52,0,0,0-.89,3.12v5.86h-1V6.5h.82L46.43,8h.06A4,4,0,0,1,50.17,6.3q3.61,0,3.62,3.87v7Z"/><path class="cls-4" d="M65.88,11.79a6,6,0,0,1-1.26,4.06,4.36,4.36,0,0,1-3.48,1.46,4.49,4.49,0,0,1-2.46-.67,4.34,4.34,0,0,1-1.63-1.94,7,7,0,0,1-.57-2.91,5.94,5.94,0,0,1,1.26-4A4.34,4.34,0,0,1,61.2,6.3a4.25,4.25,0,0,1,3.43,1.47A6,6,0,0,1,65.88,11.79Zm-8.38,0a5.43,5.43,0,0,0,1,3.42,3.64,3.64,0,0,0,5.44,0,5.43,5.43,0,0,0,1-3.42,5.27,5.27,0,0,0-1-3.4,3.65,3.65,0,0,0-5.44,0A5.43,5.43,0,0,0,57.5,11.79Z"/><path class="cls-4" d="M69.66,17.12h-1V1.92h1Z"/><path class="cls-4" d="M72.86,3.55c0-.62.2-.94.61-.94a.57.57,0,0,1,.48.25,1.21,1.21,0,0,1,.17.69,1.29,1.29,0,0,1-.17.7.57.57,0,0,1-.48.25C73.06,4.5,72.86,4.18,72.86,3.55ZM74,17.12H73V6.5h1Z"/><path class="cls-4" d="M80.42,16.45A7.5,7.5,0,0,0,82,16.3v.78a5.32,5.32,0,0,1-1.62.23,2.62,2.62,0,0,1-2.07-.75,3.46,3.46,0,0,1-.67-2.36V7.34H76.08V6.77l1.58-.44.48-2.4h.5V6.5h3.12v.84H78.64v6.72a3.13,3.13,0,0,0,.43,1.81A1.57,1.57,0,0,0,80.42,16.45Z"/><path class="cls-4" d="M91.69,17.12V10.23A3.41,3.41,0,0,0,91,7.9a2.75,2.75,0,0,0-2.09-.73,3.63,3.63,0,0,0-2.79,1,4.52,4.52,0,0,0-.89,3.12v5.86h-1V1.92h1V6.75l0,1.36h.06a3.5,3.5,0,0,1,1.51-1.38A5.16,5.16,0,0,1,89,6.3q3.61,0,3.62,3.87v7Z"/><path class="cls-4" d="M95.74,3.55c0-.62.2-.94.61-.94a.58.58,0,0,1,.48.25,1.21,1.21,0,0,1,.17.69,1.29,1.29,0,0,1-.17.7.58.58,0,0,1-.48.25C95.94,4.5,95.74,4.18,95.74,3.55Zm1.1,13.57h-1V6.5h1Z"/><path class="cls-4" d="M104.47,17.31a4.57,4.57,0,0,1-3.57-1.43,5.8,5.8,0,0,1-1.29-4A5.87,5.87,0,0,1,101,7.77a4.7,4.7,0,0,1,3.66-1.47,7.57,7.57,0,0,1,2.64.47l-.26.86a8,8,0,0,0-2.4-.46,3.63,3.63,0,0,0-3,1.21,5.24,5.24,0,0,0-1,3.47,5.1,5.1,0,0,0,1,3.37,3.43,3.43,0,0,0,2.81,1.21,7,7,0,0,0,2.68-.51v.89A5.92,5.92,0,0,1,104.47,17.31Z"/><path class="cls-4" d="M122.05,12.08h-5.8l-2,5h-1.1l5.74-14.34h.64l5.62,14.34H124Zm-5.44-.9h5.1L119.77,6c-.16-.4-.36-1-.59-1.68a14.08,14.08,0,0,1-.57,1.7Z"/><path class="cls-4" d="M131.38,6.3a8.47,8.47,0,0,1,1.45.13l-.19.93a5.67,5.67,0,0,0-1.38-.17A2.67,2.67,0,0,0,129,8.35a4.66,4.66,0,0,0-.87,2.91v5.86h-1V6.5H128l.1,1.92h.07a4.46,4.46,0,0,1,1.39-1.65A3.26,3.26,0,0,1,131.38,6.3Z"/><path class="cls-4" d="M138.77,17.31a4.57,4.57,0,0,1-3.56-1.43,5.8,5.8,0,0,1-1.29-4,5.87,5.87,0,0,1,1.34-4.1,4.7,4.7,0,0,1,3.66-1.47,7.57,7.57,0,0,1,2.64.47l-.27.86a7.85,7.85,0,0,0-2.39-.46,3.65,3.65,0,0,0-3,1.21,5.3,5.3,0,0,0-1,3.47,5.15,5.15,0,0,0,1,3.37,3.45,3.45,0,0,0,2.81,1.21,7,7,0,0,0,2.69-.51v.89A6,6,0,0,1,138.77,17.31Z"/><path class="cls-4" d="M151.31,17.12V10.23a3.36,3.36,0,0,0-.68-2.33,2.73,2.73,0,0,0-2.09-.73,3.61,3.61,0,0,0-2.78,1,4.52,4.52,0,0,0-.89,3.12v5.86h-1V1.92h1V6.75l-.05,1.36h.07a3.5,3.5,0,0,1,1.51-1.38,5.16,5.16,0,0,1,2.25-.43q3.61,0,3.61,3.87v7Z"/><path class="cls-4" d="M155.36,3.55c0-.62.2-.94.61-.94a.55.55,0,0,1,.47.25,1.13,1.13,0,0,1,.18.69,1.21,1.21,0,0,1-.18.7.55.55,0,0,1-.47.25C155.56,4.5,155.36,4.18,155.36,3.55Zm1.1,13.57h-1V6.5h1Z"/><path class="cls-4" d="M162.92,16.45a7.57,7.57,0,0,0,1.6-.15v.78a5.32,5.32,0,0,1-1.62.23,2.66,2.66,0,0,1-2.08-.75,3.52,3.52,0,0,1-.67-2.36V7.34h-1.57V6.77l1.57-.44.49-2.4h.5V6.5h3.11v.84h-3.11v6.72a3.06,3.06,0,0,0,.43,1.81A1.56,1.56,0,0,0,162.92,16.45Z"/><path class="cls-4" d="M170.71,17.31a4.61,4.61,0,0,1-3.61-1.42,5.76,5.76,0,0,1-1.3-4,6.26,6.26,0,0,1,1.25-4.07,4.16,4.16,0,0,1,3.37-1.52,3.64,3.64,0,0,1,3,1.3,5.44,5.44,0,0,1,1.09,3.56v.78h-7.65a5,5,0,0,0,1,3.34,3.59,3.59,0,0,0,2.87,1.15,9.36,9.36,0,0,0,1.59-.12,10.42,10.42,0,0,0,1.75-.55v.88a7.69,7.69,0,0,1-1.66.53A9.67,9.67,0,0,1,170.71,17.31Zm-.29-10.15a3.16,3.16,0,0,0-2.46,1,4.71,4.71,0,0,0-1.08,2.91h6.56a4.63,4.63,0,0,0-.8-2.88A2.62,2.62,0,0,0,170.42,7.16Z"/><path class="cls-4" d="M181.58,17.31A4.57,4.57,0,0,1,178,15.88a5.8,5.8,0,0,1-1.29-4,5.87,5.87,0,0,1,1.34-4.1,4.7,4.7,0,0,1,3.66-1.47,7.57,7.57,0,0,1,2.64.47l-.27.86a7.85,7.85,0,0,0-2.39-.46,3.65,3.65,0,0,0-3,1.21,5.3,5.3,0,0,0-1,3.47,5.15,5.15,0,0,0,1,3.37,3.45,3.45,0,0,0,2.81,1.21,7,7,0,0,0,2.69-.51v.89A6,6,0,0,1,181.58,17.31Z"/><path class="cls-4" d="M190.29,16.45a7.57,7.57,0,0,0,1.6-.15v.78a5.32,5.32,0,0,1-1.62.23,2.66,2.66,0,0,1-2.08-.75,3.52,3.52,0,0,1-.67-2.36V7.34H186V6.77l1.57-.44.49-2.4h.5V6.5h3.12v.84h-3.12v6.72a3.06,3.06,0,0,0,.43,1.81A1.57,1.57,0,0,0,190.29,16.45Z"/><path class="cls-4" d="M194.9,6.5v6.88a3.38,3.38,0,0,0,.68,2.33,2.73,2.73,0,0,0,2.09.72,3.65,3.65,0,0,0,2.78-.95,4.47,4.47,0,0,0,.9-3.12V6.5h1V17.12h-.82l-.17-1.47h-.06a4,4,0,0,1-3.68,1.66c-2.42,0-3.62-1.29-3.62-3.88V6.5Z"/><path class="cls-4" d="M209.81,6.3a8.28,8.28,0,0,1,1.44.13l-.18.93a5.73,5.73,0,0,0-1.38-.17,2.69,2.69,0,0,0-2.23,1.16,4.66,4.66,0,0,0-.87,2.91v5.86h-1V6.5h.82l.1,1.92h.06A4.57,4.57,0,0,1,208,6.77,3.22,3.22,0,0,1,209.81,6.3Z"/><path class="cls-4" d="M217.27,17.31a4.63,4.63,0,0,1-3.61-1.42,5.76,5.76,0,0,1-1.29-4,6.2,6.2,0,0,1,1.25-4.07A4.13,4.13,0,0,1,217,6.3a3.65,3.65,0,0,1,3,1.3A5.44,5.44,0,0,1,221,11.16v.78h-7.65a5.1,5.1,0,0,0,1,3.34,3.6,3.6,0,0,0,2.87,1.15,9.41,9.41,0,0,0,1.6-.12,10.08,10.08,0,0,0,1.74-.55v.88a7.52,7.52,0,0,1-1.66.53A9.67,9.67,0,0,1,217.27,17.31ZM217,7.16a3.13,3.13,0,0,0-2.46,1,4.77,4.77,0,0,0-1.09,2.91H220a4.57,4.57,0,0,0-.8-2.88A2.61,2.61,0,0,0,217,7.16Z"/><path class="cls-3" d="M76.3,82.2v7.39a4,4,0,0,1-1.18,3.07,4.48,4.48,0,0,1-3.24,1.12,4.32,4.32,0,0,1-3.19-1.12,4.2,4.2,0,0,1-1.13-3.1V82.2h1.33v7.46a2.93,2.93,0,0,0,.78,2.19,3.16,3.16,0,0,0,2.3.77,3,3,0,0,0,2.22-.77A3,3,0,0,0,75,89.64V82.2Z"/><path class="cls-3" d="M84.48,91.29a2.14,2.14,0,0,1-.9,1.84,4.18,4.18,0,0,1-2.5.65,5.4,5.4,0,0,1-2.65-.54V92a6.3,6.3,0,0,0,1.32.49,5.55,5.55,0,0,0,1.37.18,3.18,3.18,0,0,0,1.56-.32,1.09,1.09,0,0,0,.55-1,1.08,1.08,0,0,0-.44-.86,7.33,7.33,0,0,0-1.69-.84,8.25,8.25,0,0,1-1.7-.78,2.23,2.23,0,0,1-.75-.75,2,2,0,0,1-.25-1,1.92,1.92,0,0,1,.86-1.65,4,4,0,0,1,2.33-.6,6.78,6.78,0,0,1,2.71.56l-.47,1A6.21,6.21,0,0,0,81.5,86a2.69,2.69,0,0,0-1.39.29.9.9,0,0,0-.47.8,1,1,0,0,0,.17.58,1.73,1.73,0,0,0,.57.46,12.24,12.24,0,0,0,1.5.64,5.69,5.69,0,0,1,2.06,1.11A2,2,0,0,1,84.48,91.29Z"/><path class="cls-3" d="M90.2,93.78a3.9,3.9,0,0,1-3-1.16,4.44,4.44,0,0,1-1.1-3.21,5,5,0,0,1,1-3.29,3.39,3.39,0,0,1,2.74-1.21,3.22,3.22,0,0,1,2.54,1,4.05,4.05,0,0,1,.94,2.8v.82h-5.9a3.43,3.43,0,0,0,.76,2.29,2.64,2.64,0,0,0,2,.78A6.8,6.8,0,0,0,93,92.07v1.16a6.35,6.35,0,0,1-2.78.55ZM89.85,86a2.12,2.12,0,0,0-1.64.67,3.15,3.15,0,0,0-.73,1.86H92a2.85,2.85,0,0,0-.55-1.88A1.92,1.92,0,0,0,89.85,86Z"/><path class="cls-3" d="M99.39,84.91a5.23,5.23,0,0,1,1,.09l-.18,1.2a4.23,4.23,0,0,0-.93-.12,2.29,2.29,0,0,0-1.78.85,3.08,3.08,0,0,0-.74,2.1v4.59h-1.3V85.06h1.07l.15,1.59h.07a3.71,3.71,0,0,1,1.14-1.29A2.61,2.61,0,0,1,99.39,84.91Z"/><path class="cls-3" d="M106.37,93.62V82.2h1.33V93.62Z"/><path class="cls-3" d="M116.37,93.62V88.08a2.24,2.24,0,0,0-.48-1.56A2,2,0,0,0,114.4,86a2.47,2.47,0,0,0-2,.72,3.67,3.67,0,0,0-.62,2.4v4.49h-1.3V85.06h1l.21,1.17h.07a2.65,2.65,0,0,1,1.11-1,3.69,3.69,0,0,1,1.61-.34,3.22,3.22,0,0,1,2.32.74,3.18,3.18,0,0,1,.79,2.39v5.58Z"/><path class="cls-3" d="M123,92.71a4.91,4.91,0,0,0,.67,0,3,3,0,0,0,.5-.11v1a2.47,2.47,0,0,1-.62.16,4.08,4.08,0,0,1-.74.07c-1.65,0-2.48-.87-2.48-2.62V86.07h-1.23v-.63l1.23-.53.55-1.83h.75v2h2.48v1h-2.48v5A1.78,1.78,0,0,0,122,92.3,1.3,1.3,0,0,0,123,92.71Z"/><path class="cls-3" d="M129.38,93.78a3.93,3.93,0,0,1-3-1.16,4.48,4.48,0,0,1-1.09-3.21,5,5,0,0,1,1-3.29A3.38,3.38,0,0,1,129,84.91a3.23,3.23,0,0,1,2.55,1,4.05,4.05,0,0,1,.94,2.8v.82h-5.9a3.43,3.43,0,0,0,.76,2.29,2.64,2.64,0,0,0,2,.78,6.8,6.8,0,0,0,2.73-.58v1.16a6.35,6.35,0,0,1-2.78.55ZM129,86a2.15,2.15,0,0,0-1.65.67,3.14,3.14,0,0,0-.72,1.86h4.48a2.85,2.85,0,0,0-.55-1.88A1.92,1.92,0,0,0,129,86Z"/><path class="cls-3" d="M138.57,84.91a5.23,5.23,0,0,1,1,.09l-.18,1.2a4.23,4.23,0,0,0-.93-.12,2.29,2.29,0,0,0-1.78.85A3.08,3.08,0,0,0,136,89v4.59h-1.3V85.06h1.07l.15,1.59h.06a3.83,3.83,0,0,1,1.15-1.29A2.61,2.61,0,0,1,138.57,84.91Z"/><path class="cls-3" d="M145.69,86.07h-2.18v7.55h-1.3V86.07h-1.53v-.59l1.53-.47v-.47c0-2.11.92-3.16,2.76-3.16a5.39,5.39,0,0,1,1.59.28l-.33,1a4.34,4.34,0,0,0-1.28-.24,1.28,1.28,0,0,0-1.09.49,2.78,2.78,0,0,0-.35,1.57v.55h2.18Z"/><path class="cls-3" d="M152.46,93.62l-.25-1.21h-.07a3.63,3.63,0,0,1-1.27,1.09,3.94,3.94,0,0,1-1.59.28,2.86,2.86,0,0,1-2-.66,2.38,2.38,0,0,1-.72-1.86q0-2.6,4.15-2.72l1.45-.05V88a2.17,2.17,0,0,0-.44-1.49,1.76,1.76,0,0,0-1.38-.48,5.59,5.59,0,0,0-2.42.66l-.4-1a6,6,0,0,1,1.38-.54,6.1,6.1,0,0,1,1.52-.2,3.29,3.29,0,0,1,2.27.68,2.84,2.84,0,0,1,.73,2.18v5.84Zm-2.93-.91a2.67,2.67,0,0,0,1.91-.66,2.48,2.48,0,0,0,.69-1.86v-.78l-1.3.06a4.58,4.58,0,0,0-2.23.48,1.43,1.43,0,0,0-.68,1.32,1.34,1.34,0,0,0,.42,1.07A1.75,1.75,0,0,0,149.53,92.71Z"/><path class="cls-3" d="M159.45,93.78a3.66,3.66,0,0,1-2.88-1.14,4.73,4.73,0,0,1-1-3.24,4.86,4.86,0,0,1,1-3.32,3.73,3.73,0,0,1,2.95-1.17,5.71,5.71,0,0,1,1.23.13,4.26,4.26,0,0,1,1,.31l-.4,1.1a6.1,6.1,0,0,0-.94-.28,4,4,0,0,0-.9-.12q-2.61,0-2.61,3.33a4,4,0,0,0,.64,2.42,2.2,2.2,0,0,0,1.89.85,5.9,5.9,0,0,0,2.19-.46v1.14A4.61,4.61,0,0,1,159.45,93.78Z"/><path class="cls-3" d="M167,93.78a3.9,3.9,0,0,1-3-1.16,4.48,4.48,0,0,1-1.1-3.21,5,5,0,0,1,1-3.29,3.39,3.39,0,0,1,2.74-1.21,3.22,3.22,0,0,1,2.54,1,4.05,4.05,0,0,1,.94,2.8v.82h-5.9a3.39,3.39,0,0,0,.77,2.29,2.63,2.63,0,0,0,2,.78,6.89,6.89,0,0,0,2.74-.58v1.16a7.05,7.05,0,0,1-1.31.42A7,7,0,0,1,167,93.78ZM166.69,86a2.13,2.13,0,0,0-1.64.67,3.08,3.08,0,0,0-.72,1.86h4.47a2.85,2.85,0,0,0-.55-1.88A1.92,1.92,0,0,0,166.69,86Z"/><path class="cls-5" d="M66.24,167.2h3.23a6.12,6.12,0,0,1,3.29.68,2.39,2.39,0,0,1,1,2.15,2.47,2.47,0,0,1-.56,1.68,2.73,2.73,0,0,1-1.65.85v.08c1.73.3,2.6,1.21,2.6,2.73a2.92,2.92,0,0,1-1,2.39,4.35,4.35,0,0,1-2.89.86h-4Zm1.33,4.89h2.19a3.49,3.49,0,0,0,2-.44,1.71,1.71,0,0,0,.62-1.49,1.49,1.49,0,0,0-.69-1.38,4.24,4.24,0,0,0-2.19-.43h-2Zm0,1.13v4.27H70A3.46,3.46,0,0,0,72,177a2,2,0,0,0,.7-1.68,1.76,1.76,0,0,0-.72-1.56,3.78,3.78,0,0,0-2.18-.5Z"/><path class="cls-5" d="M77.63,170.06v5.56a2.24,2.24,0,0,0,.48,1.56,2,2,0,0,0,1.49.51,2.45,2.45,0,0,0,2-.73,3.73,3.73,0,0,0,.62-2.4v-4.5h1.3v8.56H82.42l-.19-1.14h-.07a2.6,2.6,0,0,1-1.11,1,3.63,3.63,0,0,1-1.61.34A3.3,3.3,0,0,1,77.1,178a3.17,3.17,0,0,1-.78-2.38v-5.6Z"/><path class="cls-5" d="M91.66,176.29a2.15,2.15,0,0,1-.89,1.84,4.2,4.2,0,0,1-2.5.65,5.44,5.44,0,0,1-2.66-.54V177a6.38,6.38,0,0,0,1.33.49,5.47,5.47,0,0,0,1.36.18,3.13,3.13,0,0,0,1.56-.32,1.12,1.12,0,0,0,.12-1.85,7.46,7.46,0,0,0-1.7-.84,8.11,8.11,0,0,1-1.69-.78,2.23,2.23,0,0,1-.75-.75,2.07,2.07,0,0,1,.6-2.66,4,4,0,0,1,2.34-.6,6.74,6.74,0,0,1,2.7.56L91,171.52a6.3,6.3,0,0,0-2.34-.53,2.72,2.72,0,0,0-1.39.29.9.9,0,0,0-.47.8.93.93,0,0,0,.18.58,1.73,1.73,0,0,0,.57.46,12.24,12.24,0,0,0,1.5.64,5.63,5.63,0,0,1,2.05,1.11A2,2,0,0,1,91.66,176.29Z"/><path class="cls-5" d="M93.5,167.74a.88.88,0,0,1,.22-.65.81.81,0,0,1,1.09,0,1,1,0,0,1,0,1.3.79.79,0,0,1-1.09,0A.89.89,0,0,1,93.5,167.74Zm1.41,10.88h-1.3v-8.56h1.3Z"/><path class="cls-5" d="M103.38,178.62v-5.54a2.24,2.24,0,0,0-.48-1.56,2,2,0,0,0-1.49-.51,2.46,2.46,0,0,0-2,.72,3.67,3.67,0,0,0-.63,2.4v4.49H97.52v-8.56h1l.21,1.17h.06a2.68,2.68,0,0,1,1.12-1,3.64,3.64,0,0,1,1.6-.34,3.24,3.24,0,0,1,2.33.74,3.18,3.18,0,0,1,.78,2.39v5.58Z"/><path class="cls-5" d="M110.89,178.78a3.9,3.9,0,0,1-3-1.16,4.48,4.48,0,0,1-1.1-3.21,5,5,0,0,1,1-3.29,3.4,3.4,0,0,1,2.74-1.21A3.25,3.25,0,0,1,113.1,171a4.1,4.1,0,0,1,.94,2.8v.82h-5.9a3.38,3.38,0,0,0,.76,2.29,2.64,2.64,0,0,0,2,.78,6.8,6.8,0,0,0,2.73-.58v1.16a6.35,6.35,0,0,1-2.78.55Zm-.35-7.79a2.15,2.15,0,0,0-1.65.67,3.08,3.08,0,0,0-.72,1.86h4.48a2.9,2.9,0,0,0-.55-1.88A2,2,0,0,0,110.54,171Z"/><path class="cls-5" d="M121.77,176.29a2.15,2.15,0,0,1-.89,1.84,4.2,4.2,0,0,1-2.5.65,5.47,5.47,0,0,1-2.66-.54V177a6.6,6.6,0,0,0,1.33.49,5.47,5.47,0,0,0,1.36.18,3.13,3.13,0,0,0,1.56-.32,1.12,1.12,0,0,0,.12-1.85,7.56,7.56,0,0,0-1.69-.84,8,8,0,0,1-1.7-.78,2.23,2.23,0,0,1-.75-.75,2.07,2.07,0,0,1,.6-2.66,4,4,0,0,1,2.34-.6,6.74,6.74,0,0,1,2.7.56l-.46,1.05a6.3,6.3,0,0,0-2.34-.53,2.74,2.74,0,0,0-1.39.29.89.89,0,0,0-.46.8.93.93,0,0,0,.17.58,1.73,1.73,0,0,0,.57.46,12.24,12.24,0,0,0,1.5.64,5.78,5.78,0,0,1,2.06,1.11A2,2,0,0,1,121.77,176.29Z"/><path class="cls-5" d="M129.46,176.29a2.13,2.13,0,0,1-.89,1.84,4.2,4.2,0,0,1-2.5.65,5.4,5.4,0,0,1-2.65-.54V177a6.3,6.3,0,0,0,1.32.49,5.53,5.53,0,0,0,1.36.18,3.2,3.2,0,0,0,1.57-.32,1.08,1.08,0,0,0,.54-1,1.07,1.07,0,0,0-.43-.86,7.33,7.33,0,0,0-1.69-.84,8,8,0,0,1-1.7-.78,2.23,2.23,0,0,1-.75-.75,1.92,1.92,0,0,1-.25-1,1.94,1.94,0,0,1,.85-1.65,4,4,0,0,1,2.34-.6,6.74,6.74,0,0,1,2.7.56l-.46,1.05a6.29,6.29,0,0,0-2.33-.53,2.76,2.76,0,0,0-1.4.29.89.89,0,0,0-.46.8.93.93,0,0,0,.17.58,1.73,1.73,0,0,0,.57.46,12.24,12.24,0,0,0,1.5.64,5.78,5.78,0,0,1,2.06,1.11A2,2,0,0,1,129.46,176.29Z"/><path class="cls-5" d="M135.92,178.62V167.2h1.33v10.22h5v1.2Z"/><path class="cls-5" d="M151.33,174.33a4.72,4.72,0,0,1-1.05,3.27,3.72,3.72,0,0,1-2.92,1.18,3.89,3.89,0,0,1-2-.54,3.52,3.52,0,0,1-1.37-1.55,5.4,5.4,0,0,1-.49-2.36,4.71,4.71,0,0,1,1-3.26,3.7,3.7,0,0,1,2.91-1.16,3.59,3.59,0,0,1,2.85,1.19A4.69,4.69,0,0,1,151.33,174.33Zm-6.52,0a4.1,4.1,0,0,0,.65,2.5,2.26,2.26,0,0,0,1.93.86,2.3,2.3,0,0,0,1.94-.85,4.06,4.06,0,0,0,.66-2.51,4,4,0,0,0-.66-2.48,2.33,2.33,0,0,0-2-.84,2.29,2.29,0,0,0-1.92.83A4,4,0,0,0,144.81,174.33Z"/><path class="cls-5" d="M160.52,170.06v.82l-1.58.19a3.1,3.1,0,0,1,.39.71,2.87,2.87,0,0,1,.17,1,2.54,2.54,0,0,1-.86,2,3.46,3.46,0,0,1-2.36.75,4,4,0,0,1-.72-.06,1.27,1.27,0,0,0-.83,1.1.58.58,0,0,0,.29.52,2.14,2.14,0,0,0,1,.16h1.52a3.41,3.41,0,0,1,2.14.59,2.05,2.05,0,0,1,.74,1.7,2.44,2.44,0,0,1-1.14,2.17,6.08,6.08,0,0,1-3.33.75,4.53,4.53,0,0,1-2.59-.63,2.12,2.12,0,0,1-.41-3.11,2.63,2.63,0,0,1,1.41-.78,1.35,1.35,0,0,1-.55-.46,1.21,1.21,0,0,1-.22-.73,1.37,1.37,0,0,1,.25-.82,2.62,2.62,0,0,1,.79-.68,2.28,2.28,0,0,1-1.09-.93,2.68,2.68,0,0,1-.41-1.5,2.76,2.76,0,0,1,.84-2.16,3.43,3.43,0,0,1,2.39-.76,4.5,4.5,0,0,1,1.21.15Zm-6.83,10a1.18,1.18,0,0,0,.59,1.06,3.23,3.23,0,0,0,1.68.36,4.76,4.76,0,0,0,2.42-.49,1.51,1.51,0,0,0,.78-1.33,1,1,0,0,0-.43-1,3.29,3.29,0,0,0-1.61-.27h-1.56a2,2,0,0,0-1.37.42A1.51,1.51,0,0,0,153.69,180.06Zm.71-7.26a1.76,1.76,0,0,0,.5,1.36,2,2,0,0,0,1.42.46,1.65,1.65,0,0,0,1.9-1.84,1.7,1.7,0,0,0-1.93-1.93,1.9,1.9,0,0,0-1.4.49A2,2,0,0,0,154.4,172.8Z"/><path class="cls-5" d="M162.17,167.74a.84.84,0,0,1,.22-.65.8.8,0,0,1,1.08,0,1,1,0,0,1,0,1.3.77.77,0,0,1-1.08,0A.85.85,0,0,1,162.17,167.74Zm1.41,10.88h-1.3v-8.56h1.3Z"/><path class="cls-5" d="M169.64,178.78a3.66,3.66,0,0,1-2.88-1.14,4.73,4.73,0,0,1-1-3.24,4.86,4.86,0,0,1,1-3.32,3.73,3.73,0,0,1,2.95-1.17A5.71,5.71,0,0,1,171,170a4.1,4.1,0,0,1,1,.31l-.4,1.1a6,6,0,0,0-.93-.28,4,4,0,0,0-.9-.12q-2.61,0-2.61,3.33a4,4,0,0,0,.63,2.42,2.22,2.22,0,0,0,1.89.85,6,6,0,0,0,2.2-.46v1.14A4.68,4.68,0,0,1,169.64,178.78Z"/><path class="cls-5" d="M48.43,263.23,47,259.59H42.43L41,263.23H39.68l4.52-11.47h1.12l4.49,11.47ZM46.6,258.4l-1.33-3.54c-.17-.45-.35-1-.53-1.65a17,17,0,0,1-.49,1.65L42.9,258.4Z"/><path class="cls-5" d="M55.4,263.38a3.59,3.59,0,0,1-1.52-.31,2.82,2.82,0,0,1-1.17-.95h-.09a12.06,12.06,0,0,1,.09,1.43v3.52H51.42V254.66h1l.18,1.17h.06a3.17,3.17,0,0,1,1.17-1,3.5,3.5,0,0,1,1.52-.31A3.15,3.15,0,0,1,58,255.67a6.19,6.19,0,0,1,0,6.54A3.18,3.18,0,0,1,55.4,263.38Zm-.19-7.77a2.3,2.3,0,0,0-1.89.72,3.84,3.84,0,0,0-.61,2.32v.29a4.29,4.29,0,0,0,.61,2.58,2.28,2.28,0,0,0,1.93.78,2,2,0,0,0,1.73-.9,4.27,4.27,0,0,0,.63-2.48,4.1,4.1,0,0,0-.63-2.46A2.06,2.06,0,0,0,55.21,255.61Z"/><path class="cls-5" d="M65.14,263.38a3.64,3.64,0,0,1-1.53-.31,2.8,2.8,0,0,1-1.16-.95h-.1a10.33,10.33,0,0,1,.1,1.43v3.52h-1.3V254.66h1.06l.18,1.17h.06a3.07,3.07,0,0,1,1.16-1,3.51,3.51,0,0,1,1.53-.31,3.13,3.13,0,0,1,2.62,1.16,5.13,5.13,0,0,1,.93,3.27,5.05,5.05,0,0,1-.94,3.27A3.17,3.17,0,0,1,65.14,263.38ZM65,255.61a2.3,2.3,0,0,0-1.9.72,3.77,3.77,0,0,0-.6,2.32v.29a4.3,4.3,0,0,0,.6,2.58,2.28,2.28,0,0,0,1.93.78,2,2,0,0,0,1.74-.9,4.27,4.27,0,0,0,.63-2.48,4.1,4.1,0,0,0-.63-2.46A2.07,2.07,0,0,0,65,255.61Z"/><path class="cls-5" d="M72.19,263.23H70.9V251.07h1.29Z"/><path class="cls-5" d="M74.69,252.34a.89.89,0,0,1,.22-.65.81.81,0,0,1,1.09,0,.85.85,0,0,1,.22.65A.89.89,0,0,1,76,253a.81.81,0,0,1-1.09,0A.94.94,0,0,1,74.69,252.34Zm1.41,10.89H74.8v-8.57h1.3Z"/><path class="cls-5" d="M82.17,263.38a3.66,3.66,0,0,1-2.88-1.14,4.73,4.73,0,0,1-1-3.24,4.85,4.85,0,0,1,1-3.32,3.74,3.74,0,0,1,3-1.17,5.87,5.87,0,0,1,1.24.13,4,4,0,0,1,1,.31l-.39,1.1a6.1,6.1,0,0,0-.94-.28,3.92,3.92,0,0,0-.9-.11c-1.74,0-2.61,1.1-2.61,3.32a4,4,0,0,0,.64,2.43,2.2,2.2,0,0,0,1.88.84,5.71,5.71,0,0,0,2.2-.46v1.15A4.74,4.74,0,0,1,82.17,263.38Z"/><path class="cls-5" d="M91.77,263.23,91.51,262h-.06a3.65,3.65,0,0,1-1.28,1.09,3.87,3.87,0,0,1-1.59.28,2.89,2.89,0,0,1-2-.65,2.4,2.4,0,0,1-.72-1.87q0-2.6,4.14-2.72l1.46-.05v-.53a2.17,2.17,0,0,0-.44-1.49,1.78,1.78,0,0,0-1.38-.48,5.59,5.59,0,0,0-2.42.66l-.4-1a6,6,0,0,1,1.38-.54,6.1,6.1,0,0,1,1.52-.2,3.25,3.25,0,0,1,2.26.68,2.82,2.82,0,0,1,.74,2.18v5.85Zm-2.93-.92a2.63,2.63,0,0,0,1.9-.66,2.44,2.44,0,0,0,.7-1.86V259l-1.3.06a4.79,4.79,0,0,0-2.23.48,1.44,1.44,0,0,0-.68,1.32,1.34,1.34,0,0,0,.42,1.07A1.73,1.73,0,0,0,88.84,262.31Z"/><path class="cls-5" d="M98.15,262.31a4.77,4.77,0,0,0,.66-.05c.21,0,.38-.07.51-.1v1a3.07,3.07,0,0,1-.62.17,5.23,5.23,0,0,1-.74.06c-1.66,0-2.49-.87-2.49-2.62v-5.09H94.25v-.62l1.22-.54.55-1.83h.75v2h2.48v1H96.77v5a1.71,1.71,0,0,0,.37,1.19A1.29,1.29,0,0,0,98.15,262.31Z"/><path class="cls-5" d="M101,252.34a.85.85,0,0,1,.22-.65.81.81,0,0,1,1.09,0,.85.85,0,0,1,.22.65.89.89,0,0,1-.22.66.81.81,0,0,1-1.09,0A.89.89,0,0,1,101,252.34Zm1.41,10.89h-1.3v-8.57h1.3Z"/><path class="cls-5" d="M112.36,258.94a4.76,4.76,0,0,1-1,3.27,3.75,3.75,0,0,1-2.92,1.17,3.89,3.89,0,0,1-2-.54A3.55,3.55,0,0,1,105,261.3a5.46,5.46,0,0,1-.48-2.36,4.72,4.72,0,0,1,1-3.27,3.74,3.74,0,0,1,2.91-1.16,3.62,3.62,0,0,1,2.85,1.19A4.7,4.7,0,0,1,112.36,258.94Zm-6.52,0a4.07,4.07,0,0,0,.66,2.5,2.28,2.28,0,0,0,1.93.86,2.3,2.3,0,0,0,1.93-.86,4,4,0,0,0,.66-2.5,4,4,0,0,0-.66-2.48,2.65,2.65,0,0,0-3.87,0A4.06,4.06,0,0,0,105.84,258.94Z"/><path class="cls-5" d="M120.41,263.23v-5.54a2.3,2.3,0,0,0-.47-1.57,2,2,0,0,0-1.5-.51,2.45,2.45,0,0,0-2,.72,3.67,3.67,0,0,0-.63,2.4v4.5h-1.3v-8.57h1.06l.21,1.17h.06a2.75,2.75,0,0,1,1.12-1,3.64,3.64,0,0,1,1.6-.34,3.29,3.29,0,0,1,2.33.74,3.2,3.2,0,0,1,.78,2.39v5.59Z"/><path class="cls-5" d="M137.84,257.41a5.78,5.78,0,0,1-1.53,4.32,6.08,6.08,0,0,1-4.42,1.5h-3.16V251.8h3.5a5.12,5.12,0,0,1,5.61,5.61Zm-1.4,0a4.6,4.6,0,0,0-1.13-3.37A4.49,4.49,0,0,0,132,253h-1.93v9.13h1.62a4.92,4.92,0,0,0,3.57-1.17A4.62,4.62,0,0,0,136.44,257.45Z"/><path class="cls-5" d="M145.31,263.23l-.26-1.22H145a3.74,3.74,0,0,1-1.28,1.09,3.94,3.94,0,0,1-1.59.28,2.9,2.9,0,0,1-2-.65,2.4,2.4,0,0,1-.72-1.87q0-2.6,4.15-2.72l1.45-.05v-.53a2.17,2.17,0,0,0-.43-1.49,1.79,1.79,0,0,0-1.39-.48,5.63,5.63,0,0,0-2.42.66l-.4-1a6.32,6.32,0,0,1,2.9-.74,3.28,3.28,0,0,1,2.27.68,2.86,2.86,0,0,1,.74,2.18v5.85Zm-2.93-.92a2.65,2.65,0,0,0,1.9-.66,2.47,2.47,0,0,0,.69-1.86V259l-1.3.06a4.83,4.83,0,0,0-2.23.48,1.46,1.46,0,0,0-.68,1.32,1.34,1.34,0,0,0,.42,1.07A1.78,1.78,0,0,0,142.38,262.31Z"/><path class="cls-5" d="M151.68,262.31a4.65,4.65,0,0,0,.66-.05,4.59,4.59,0,0,0,.51-.1v1a3.07,3.07,0,0,1-.62.17,5.12,5.12,0,0,1-.74.06c-1.66,0-2.48-.87-2.48-2.62v-5.09h-1.23v-.62l1.23-.54.54-1.83h.75v2h2.49v1H150.3v5a1.76,1.76,0,0,0,.37,1.19A1.3,1.3,0,0,0,151.68,262.31Z"/><path class="cls-5" d="M160.09,263.23l-.26-1.22h-.06a3.74,3.74,0,0,1-1.28,1.09,3.94,3.94,0,0,1-1.59.28,2.9,2.9,0,0,1-2-.65,2.4,2.4,0,0,1-.72-1.87q0-2.6,4.15-2.72l1.45-.05v-.53a2.17,2.17,0,0,0-.43-1.49,1.79,1.79,0,0,0-1.39-.48,5.63,5.63,0,0,0-2.42.66l-.4-1a6.32,6.32,0,0,1,2.9-.74,3.28,3.28,0,0,1,2.27.68,2.86,2.86,0,0,1,.74,2.18v5.85Zm-2.93-.92a2.65,2.65,0,0,0,1.9-.66,2.47,2.47,0,0,0,.69-1.86V259l-1.3.06a4.83,4.83,0,0,0-2.23.48,1.46,1.46,0,0,0-.68,1.32,1.31,1.31,0,0,0,.43,1.07A1.73,1.73,0,0,0,157.16,262.31Z"/><path class="cls-5" d="M167.6,254.52a3.21,3.21,0,0,1,2.62,1.15,6.19,6.19,0,0,1,0,6.54,3.17,3.17,0,0,1-2.61,1.17,3.64,3.64,0,0,1-1.53-.31,2.8,2.8,0,0,1-1.16-.95h-.09l-.28,1.11h-.92V251.07h1.29v3c0,.66,0,1.26-.06,1.78h.06A3.1,3.1,0,0,1,167.6,254.52Zm-.19,1.09a2.26,2.26,0,0,0-1.91.76,5.87,5.87,0,0,0,0,5.15,2.29,2.29,0,0,0,1.93.78,2,2,0,0,0,1.78-.88,4.38,4.38,0,0,0,.59-2.5,4.24,4.24,0,0,0-.59-2.49A2.06,2.06,0,0,0,167.41,255.61Z"/><path class="cls-5" d="M178.7,263.23l-.26-1.22h-.06a3.74,3.74,0,0,1-1.28,1.09,3.94,3.94,0,0,1-1.59.28,2.9,2.9,0,0,1-2-.65,2.4,2.4,0,0,1-.72-1.87q0-2.6,4.15-2.72l1.45-.05v-.53a2.17,2.17,0,0,0-.43-1.49,1.79,1.79,0,0,0-1.39-.48,5.63,5.63,0,0,0-2.42.66l-.4-1a6.09,6.09,0,0,1,1.39-.54,6,6,0,0,1,1.51-.2,3.28,3.28,0,0,1,2.27.68,2.86,2.86,0,0,1,.74,2.18v5.85Zm-2.93-.92a2.65,2.65,0,0,0,1.9-.66,2.47,2.47,0,0,0,.69-1.86V259l-1.3.06a4.83,4.83,0,0,0-2.23.48,1.46,1.46,0,0,0-.68,1.32,1.31,1.31,0,0,0,.43,1.07A1.73,1.73,0,0,0,175.77,262.31Z"/><path class="cls-5" d="M187.74,260.89a2.14,2.14,0,0,1-.89,1.84,4.15,4.15,0,0,1-2.5.65,5.44,5.44,0,0,1-2.66-.54v-1.2a6.18,6.18,0,0,0,1.33.49,5.47,5.47,0,0,0,1.36.18,3.13,3.13,0,0,0,1.56-.32,1.07,1.07,0,0,0,.55-1,1.11,1.11,0,0,0-.43-.86,7.46,7.46,0,0,0-1.7-.84,8.78,8.78,0,0,1-1.69-.77,2.35,2.35,0,0,1-.75-.76,1.89,1.89,0,0,1-.25-1,1.93,1.93,0,0,1,.85-1.65,4,4,0,0,1,2.34-.6,6.74,6.74,0,0,1,2.7.56l-.46,1.05a6.3,6.3,0,0,0-2.34-.53,2.72,2.72,0,0,0-1.39.29.9.9,0,0,0-.47.8.93.93,0,0,0,.18.58,1.64,1.64,0,0,0,.57.47,14.73,14.73,0,0,0,1.5.63,5.47,5.47,0,0,1,2,1.12A1.94,1.94,0,0,1,187.74,260.89Z"/><path class="cls-5" d="M193.47,263.38a3.93,3.93,0,0,1-3-1.15,4.51,4.51,0,0,1-1.1-3.22,4.93,4.93,0,0,1,1-3.28,3.36,3.36,0,0,1,2.74-1.22,3.23,3.23,0,0,1,2.55,1.06,4.05,4.05,0,0,1,.93,2.79v.82h-5.89a3.38,3.38,0,0,0,.76,2.29,2.63,2.63,0,0,0,2,.78,6.85,6.85,0,0,0,2.74-.58v1.16a6.5,6.5,0,0,1-1.3.42A7.08,7.08,0,0,1,193.47,263.38Zm-.36-7.79a2.15,2.15,0,0,0-1.64.67,3.08,3.08,0,0,0-.72,1.86h4.47a2.86,2.86,0,0,0-.54-1.87A1.93,1.93,0,0,0,193.11,255.59Z"/><path class="cls-4" d="M360.42,16.62,355.1,3.43H355c.06.81.08,1.64.08,2.48V16.62h-1V2.34h1.55l5.06,12.56h.05l5.06-12.56h1.51V16.62h-1V5.8c0-.76,0-1.54.12-2.35h-.08l-5.34,13.17Z"/><path class="cls-4" d="M370.82,3.05c0-.62.21-.94.62-.94a.55.55,0,0,1,.47.25,1.21,1.21,0,0,1,.17.69,1.29,1.29,0,0,1-.17.7.55.55,0,0,1-.47.25C371,4,370.82,3.68,370.82,3.05Zm1.1,13.57h-1V6h1Z"/><path class="cls-4" d="M379.55,16.81A4.57,4.57,0,0,1,376,15.38a5.8,5.8,0,0,1-1.29-4A5.82,5.82,0,0,1,376,7.27,4.7,4.7,0,0,1,379.7,5.8a7.57,7.57,0,0,1,2.64.47l-.27.86a7.91,7.91,0,0,0-2.39-.46,3.65,3.65,0,0,0-3,1.21,5.3,5.3,0,0,0-1,3.47,5.15,5.15,0,0,0,1,3.37,3.45,3.45,0,0,0,2.81,1.21,7,7,0,0,0,2.69-.51v.89A6,6,0,0,1,379.55,16.81Z"/><path class="cls-4" d="M388.86,5.8a8.47,8.47,0,0,1,1.45.13l-.19.93a5.65,5.65,0,0,0-1.37-.17,2.68,2.68,0,0,0-2.23,1.16,4.66,4.66,0,0,0-.87,2.91v5.86h-1V6h.82l.1,1.92h.07a4.47,4.47,0,0,1,1.4-1.65A3.21,3.21,0,0,1,388.86,5.8Z"/><path class="cls-4" d="M400.85,11.29a6,6,0,0,1-1.26,4.06,4.36,4.36,0,0,1-3.48,1.46,4.49,4.49,0,0,1-2.46-.67A4.34,4.34,0,0,1,392,14.2a7,7,0,0,1-.57-2.91,5.94,5.94,0,0,1,1.26-4,4.34,4.34,0,0,1,3.46-1.45,4.25,4.25,0,0,1,3.43,1.47A6,6,0,0,1,400.85,11.29Zm-8.38,0a5.43,5.43,0,0,0,1,3.42,3.64,3.64,0,0,0,5.44,0,5.43,5.43,0,0,0,1-3.42,5.27,5.27,0,0,0-1-3.4,3.65,3.65,0,0,0-5.44,0A5.43,5.43,0,0,0,392.47,11.29Z"/><path class="cls-4" d="M410.22,13.85A2.51,2.51,0,0,1,409.13,16a5.18,5.18,0,0,1-3.07.77,7.41,7.41,0,0,1-3.38-.65V15.11a7.37,7.37,0,0,0,3.38.8,4.46,4.46,0,0,0,2.39-.52,1.59,1.59,0,0,0,.81-1.39,1.72,1.72,0,0,0-.65-1.35,7.15,7.15,0,0,0-2.13-1.07,13.32,13.32,0,0,1-2.24-1,3.12,3.12,0,0,1-1-.94,2.34,2.34,0,0,1-.33-1.28,2.19,2.19,0,0,1,1-1.88,4.89,4.89,0,0,1,2.8-.69,8.35,8.35,0,0,1,3.26.64l-.36.88a7.66,7.66,0,0,0-2.9-.65,4.29,4.29,0,0,0-2.06.43,1.33,1.33,0,0,0-.76,1.2,1.65,1.65,0,0,0,.59,1.32,7.88,7.88,0,0,0,2.31,1.12,10.87,10.87,0,0,1,2.09.93,3.06,3.06,0,0,1,1,.94A2.3,2.3,0,0,1,410.22,13.85Z"/><path class="cls-4" d="M417.2,16.81a4.63,4.63,0,0,1-3.61-1.42,5.76,5.76,0,0,1-1.29-4,6.2,6.2,0,0,1,1.25-4.07,4.13,4.13,0,0,1,3.37-1.52,3.65,3.65,0,0,1,3,1.3A5.44,5.44,0,0,1,421,10.66v.78h-7.65a5.1,5.1,0,0,0,1,3.34,3.6,3.6,0,0,0,2.87,1.15,9.49,9.49,0,0,0,1.6-.12,10.36,10.36,0,0,0,1.74-.55v.88a7.52,7.52,0,0,1-1.66.53A9.67,9.67,0,0,1,417.2,16.81Zm-.28-10.15a3.13,3.13,0,0,0-2.46,1,4.71,4.71,0,0,0-1.09,2.91h6.56a4.57,4.57,0,0,0-.8-2.88A2.61,2.61,0,0,0,416.92,6.66Z"/><path class="cls-4" d="M427.87,5.8a8.28,8.28,0,0,1,1.44.13l-.18.93a5.67,5.67,0,0,0-1.38-.17,2.69,2.69,0,0,0-2.23,1.16,4.72,4.72,0,0,0-.86,2.91v5.86h-1V6h.82l.1,1.92h.06a4.57,4.57,0,0,1,1.4-1.65A3.26,3.26,0,0,1,427.87,5.8Z"/><path class="cls-4" d="M434.73,16.62,430.62,6h1l2.75,7.22a24.82,24.82,0,0,1,.82,2.42h.05c.27-.89.54-1.7.82-2.44L438.81,6h1l-4.1,10.62Z"/><path class="cls-4" d="M441.67,3.05c0-.62.2-.94.61-.94a.57.57,0,0,1,.48.25,1.21,1.21,0,0,1,.17.69,1.29,1.29,0,0,1-.17.7.57.57,0,0,1-.48.25C441.87,4,441.67,3.68,441.67,3.05Zm1.1,13.57h-1V6h1Z"/><path class="cls-4" d="M450.4,16.81a4.57,4.57,0,0,1-3.57-1.43,5.85,5.85,0,0,1-1.28-4,5.86,5.86,0,0,1,1.33-4.1,4.73,4.73,0,0,1,3.67-1.47,7.55,7.55,0,0,1,2.63.47l-.26.86a8,8,0,0,0-2.39-.46,3.64,3.64,0,0,0-3,1.21,5.3,5.3,0,0,0-1,3.47,5.15,5.15,0,0,0,1,3.37,3.45,3.45,0,0,0,2.81,1.21,7,7,0,0,0,2.69-.51v.89A6,6,0,0,1,450.4,16.81Z"/><path class="cls-4" d="M459.57,16.81a4.61,4.61,0,0,1-3.6-1.42,5.72,5.72,0,0,1-1.3-4,6.26,6.26,0,0,1,1.25-4.07,4.16,4.16,0,0,1,3.37-1.52,3.64,3.64,0,0,1,3,1.3,5.44,5.44,0,0,1,1.08,3.56v.78h-7.64a5,5,0,0,0,1,3.34,3.58,3.58,0,0,0,2.86,1.15,9.41,9.41,0,0,0,1.6-.12,10.08,10.08,0,0,0,1.74-.55v.88a7.52,7.52,0,0,1-1.66.53A9.5,9.5,0,0,1,459.57,16.81Zm-.28-10.15a3.16,3.16,0,0,0-2.46,1,4.71,4.71,0,0,0-1.08,2.91h6.56a4.63,4.63,0,0,0-.8-2.88A2.64,2.64,0,0,0,459.29,6.66Z"/><path class="cls-4" d="M472.76,13.85A2.51,2.51,0,0,1,471.67,16a5.18,5.18,0,0,1-3.07.77,7.41,7.41,0,0,1-3.38-.65V15.11a7.37,7.37,0,0,0,3.38.8,4.4,4.4,0,0,0,2.38-.52A1.58,1.58,0,0,0,471.8,14a1.72,1.72,0,0,0-.65-1.35A7.15,7.15,0,0,0,469,11.58a13.32,13.32,0,0,1-2.24-1,3.12,3.12,0,0,1-1-.94,2.34,2.34,0,0,1-.33-1.28,2.19,2.19,0,0,1,1-1.88,4.89,4.89,0,0,1,2.8-.69,8.35,8.35,0,0,1,3.26.64l-.36.88a7.66,7.66,0,0,0-2.9-.65,4.29,4.29,0,0,0-2.06.43,1.33,1.33,0,0,0-.76,1.2,1.65,1.65,0,0,0,.59,1.32,7.88,7.88,0,0,0,2.31,1.12,10.87,10.87,0,0,1,2.09.93,3.16,3.16,0,0,1,1,.94A2.3,2.3,0,0,1,472.76,13.85Z"/><path class="cls-4" d="M487.81,11.58H482l-2,5h-1.1l5.74-14.34h.64l5.62,14.34h-1.12Zm-5.44-.9h5.1l-1.94-5.15c-.16-.4-.36-1-.58-1.68a16,16,0,0,1-.58,1.7Z"/><path class="cls-4" d="M497.14,5.8a8.47,8.47,0,0,1,1.45.13l-.19.93A5.67,5.67,0,0,0,497,6.69a2.67,2.67,0,0,0-2.22,1.16,4.66,4.66,0,0,0-.87,2.91v5.86h-1V6h.82l.1,1.92H494a4.46,4.46,0,0,1,1.39-1.65A3.26,3.26,0,0,1,497.14,5.8Z"/><path class="cls-4" d="M504.54,16.81A4.57,4.57,0,0,1,501,15.38a5.8,5.8,0,0,1-1.29-4A5.87,5.87,0,0,1,501,7.27a4.7,4.7,0,0,1,3.66-1.47,7.57,7.57,0,0,1,2.64.47l-.27.86a7.85,7.85,0,0,0-2.39-.46,3.65,3.65,0,0,0-3,1.21,5.3,5.3,0,0,0-1,3.47,5.15,5.15,0,0,0,1,3.37,3.45,3.45,0,0,0,2.82,1.21,7,7,0,0,0,2.68-.51v.89A6,6,0,0,1,504.54,16.81Z"/><path class="cls-4" d="M517.07,16.62V9.73a3.36,3.36,0,0,0-.68-2.33,2.72,2.72,0,0,0-2.09-.73,3.62,3.62,0,0,0-2.78,1,4.52,4.52,0,0,0-.89,3.12v5.86h-1V1.42h1V6.25l-.05,1.36h.07a3.5,3.5,0,0,1,1.51-1.38,5.16,5.16,0,0,1,2.25-.43Q518,5.8,518,9.67v7Z"/><path class="cls-4" d="M521.12,3.05c0-.62.2-.94.61-.94a.58.58,0,0,1,.48.25,1.21,1.21,0,0,1,.17.69,1.29,1.29,0,0,1-.17.7.58.58,0,0,1-.48.25C521.32,4,521.12,3.68,521.12,3.05Zm1.1,13.57h-1V6h1Z"/><path class="cls-4" d="M528.68,16a7.57,7.57,0,0,0,1.6-.15v.78a5.32,5.32,0,0,1-1.62.23,2.66,2.66,0,0,1-2.08-.75,3.52,3.52,0,0,1-.67-2.36V6.84h-1.57V6.27l1.57-.44.49-2.4h.5V6H530v.84H526.9v6.72a3.06,3.06,0,0,0,.43,1.81A1.57,1.57,0,0,0,528.68,16Z"/><path class="cls-4" d="M536.47,16.81a4.61,4.61,0,0,1-3.61-1.42,5.76,5.76,0,0,1-1.3-4,6.26,6.26,0,0,1,1.25-4.07,4.16,4.16,0,0,1,3.37-1.52,3.64,3.64,0,0,1,3,1.3,5.39,5.39,0,0,1,1.09,3.56v.78h-7.65a5,5,0,0,0,1,3.34,3.59,3.59,0,0,0,2.87,1.15,9.36,9.36,0,0,0,1.59-.12,10.42,10.42,0,0,0,1.75-.55v.88a7.69,7.69,0,0,1-1.66.53A9.67,9.67,0,0,1,536.47,16.81Zm-.29-10.15a3.16,3.16,0,0,0-2.46,1,4.71,4.71,0,0,0-1.08,2.91h6.56a4.63,4.63,0,0,0-.8-2.88A2.62,2.62,0,0,0,536.18,6.66Z"/><path class="cls-4" d="M547.34,16.81a4.57,4.57,0,0,1-3.56-1.43,5.8,5.8,0,0,1-1.29-4,5.87,5.87,0,0,1,1.34-4.1,4.7,4.7,0,0,1,3.66-1.47,7.57,7.57,0,0,1,2.64.47l-.27.86a7.85,7.85,0,0,0-2.39-.46,3.65,3.65,0,0,0-3,1.21,5.3,5.3,0,0,0-1,3.47,5.15,5.15,0,0,0,1,3.37,3.45,3.45,0,0,0,2.82,1.21,7,7,0,0,0,2.68-.51v.89A6,6,0,0,1,547.34,16.81Z"/><path class="cls-4" d="M556.05,16a7.5,7.5,0,0,0,1.6-.15v.78a5.32,5.32,0,0,1-1.62.23,2.62,2.62,0,0,1-2.07-.75,3.46,3.46,0,0,1-.67-2.36V6.84h-1.58V6.27l1.58-.44.48-2.4h.5V6h3.12v.84h-3.12v6.72a3.13,3.13,0,0,0,.43,1.81A1.57,1.57,0,0,0,556.05,16Z"/><path class="cls-4" d="M560.66,6v6.88a3.38,3.38,0,0,0,.68,2.33,2.73,2.73,0,0,0,2.09.72,3.65,3.65,0,0,0,2.78-.95,4.47,4.47,0,0,0,.9-3.12V6h1V16.62h-.82l-.18-1.47H567a4,4,0,0,1-3.68,1.66c-2.42,0-3.62-1.29-3.62-3.88V6Z"/><path class="cls-4" d="M575.57,5.8a8.28,8.28,0,0,1,1.44.13l-.18.93a5.67,5.67,0,0,0-1.38-.17,2.69,2.69,0,0,0-2.23,1.16,4.72,4.72,0,0,0-.86,2.91v5.86h-1V6h.82l.1,1.92h.07a4.46,4.46,0,0,1,1.39-1.65A3.26,3.26,0,0,1,575.57,5.8Z"/><path class="cls-4" d="M583,16.81a4.64,4.64,0,0,1-3.61-1.42,5.76,5.76,0,0,1-1.29-4,6.26,6.26,0,0,1,1.25-4.07,4.13,4.13,0,0,1,3.37-1.52,3.65,3.65,0,0,1,3,1.3,5.44,5.44,0,0,1,1.08,3.56v.78h-7.65a5,5,0,0,0,1,3.34A3.57,3.57,0,0,0,583,15.93a9.41,9.41,0,0,0,1.6-.12,10.08,10.08,0,0,0,1.74-.55v.88a7.52,7.52,0,0,1-1.66.53A9.67,9.67,0,0,1,583,16.81Zm-.28-10.15a3.16,3.16,0,0,0-2.46,1,4.77,4.77,0,0,0-1.09,2.91h6.57A4.57,4.57,0,0,0,585,7.7,2.61,2.61,0,0,0,582.75,6.66Z"/><line class="cls-6" x1="241.5" y1="-4.26" x2="241.53" y2="314.26"/><path class="cls-5" d="M264.6,178.23l-3.88-10.13h-.06c.07.8.11,1.76.11,2.86v7.27h-1.23V166.8h2l3.62,9.43h.06l3.65-9.43h2v11.43h-1.33v-7.36c0-.85,0-1.76.11-2.75h-.06l-3.91,10.11Z"/><path class="cls-5" d="M273.58,167.34a.89.89,0,0,1,.21-.65.81.81,0,0,1,1.09,0,.86.86,0,0,1,.23.65.9.9,0,0,1-.23.66.81.81,0,0,1-1.09,0A.93.93,0,0,1,273.58,167.34Zm1.4,10.89h-1.29v-8.57H275Z"/><path class="cls-5" d="M281,178.38a3.66,3.66,0,0,1-2.87-1.14,4.71,4.71,0,0,1-1-3.24,4.85,4.85,0,0,1,1-3.32,3.73,3.73,0,0,1,2.95-1.17,5.87,5.87,0,0,1,1.24.13,4,4,0,0,1,1,.31l-.39,1.1a6.1,6.1,0,0,0-.94-.28,3.92,3.92,0,0,0-.9-.11c-1.74,0-2.61,1.1-2.61,3.32a4,4,0,0,0,.64,2.43,2.2,2.2,0,0,0,1.88.84,5.71,5.71,0,0,0,2.2-.46v1.15A4.76,4.76,0,0,1,281,178.38Z"/><path class="cls-5" d="M289.08,169.51a5.23,5.23,0,0,1,1,.09l-.18,1.2a5,5,0,0,0-.94-.11,2.31,2.31,0,0,0-1.78.84,3.07,3.07,0,0,0-.73,2.1v4.6h-1.3v-8.57h1.07l.15,1.59h.06A3.73,3.73,0,0,1,287.6,170,2.61,2.61,0,0,1,289.08,169.51Z"/><path class="cls-5" d="M298.94,173.94a4.76,4.76,0,0,1-1.06,3.27,3.71,3.71,0,0,1-2.91,1.17,3.84,3.84,0,0,1-2-.54,3.57,3.57,0,0,1-1.38-1.54,5.46,5.46,0,0,1-.48-2.36,4.72,4.72,0,0,1,1.05-3.27,3.7,3.7,0,0,1,2.9-1.16,3.65,3.65,0,0,1,2.86,1.19A4.75,4.75,0,0,1,298.94,173.94Zm-6.53,0a4.07,4.07,0,0,0,.66,2.5,2.6,2.6,0,0,0,3.86,0,4,4,0,0,0,.66-2.5,4,4,0,0,0-.66-2.48,2.65,2.65,0,0,0-3.87,0A4.06,4.06,0,0,0,292.41,173.94Z"/><path class="cls-5" d="M306.65,175.89a2.12,2.12,0,0,1-.89,1.84,4.11,4.11,0,0,1-2.5.65,5.4,5.4,0,0,1-2.65-.54v-1.2a6.3,6.3,0,0,0,1.32.49,5.53,5.53,0,0,0,1.36.18,3.2,3.2,0,0,0,1.57-.32,1.13,1.13,0,0,0,.11-1.85,7.33,7.33,0,0,0-1.69-.84,8.94,8.94,0,0,1-1.7-.77,2.26,2.26,0,0,1-.75-.76,2,2,0,0,1-.25-1,2,2,0,0,1,.85-1.65,4,4,0,0,1,2.34-.6,6.74,6.74,0,0,1,2.7.56l-.46,1.05a6.25,6.25,0,0,0-2.33-.53,2.69,2.69,0,0,0-1.39.29.88.88,0,0,0-.47.8,1,1,0,0,0,.17.58,1.74,1.74,0,0,0,.57.47,14.73,14.73,0,0,0,1.5.63,5.53,5.53,0,0,1,2.06,1.12A2,2,0,0,1,306.65,175.89Z"/><path class="cls-5" d="M312.38,178.38a4,4,0,0,1-3-1.15,4.5,4.5,0,0,1-1.09-3.22,4.93,4.93,0,0,1,1-3.28,3.36,3.36,0,0,1,2.73-1.22,3.21,3.21,0,0,1,2.55,1.06,4,4,0,0,1,.94,2.79v.82h-5.9a3.43,3.43,0,0,0,.76,2.29,2.64,2.64,0,0,0,2,.78,6.8,6.8,0,0,0,2.73-.58v1.16a6.3,6.3,0,0,1-1.3.42A7,7,0,0,1,312.38,178.38Zm-.35-7.79a2.15,2.15,0,0,0-1.65.67,3.08,3.08,0,0,0-.72,1.86h4.48a2.8,2.8,0,0,0-.55-1.87A1.9,1.9,0,0,0,312,170.59Z"/><path class="cls-5" d="M321.57,169.51a5.23,5.23,0,0,1,1,.09l-.18,1.2a4.85,4.85,0,0,0-.93-.11,2.28,2.28,0,0,0-1.78.84,3.08,3.08,0,0,0-.74,2.1v4.6h-1.3v-8.57h1.07l.15,1.59h.06a3.73,3.73,0,0,1,1.15-1.29A2.61,2.61,0,0,1,321.57,169.51Z"/><path class="cls-5" d="M326.84,178.23l-3.25-8.57H325l1.85,5.08c.41,1.19.66,2,.73,2.31h.06c.06-.27.24-.84.55-1.71s1-2.76,2.05-5.68h1.39l-3.25,8.57Z"/><path class="cls-5" d="M333.07,167.34a.85.85,0,0,1,.22-.65.75.75,0,0,1,.54-.21.76.76,0,0,1,.54.21.86.86,0,0,1,.23.65.9.9,0,0,1-.23.66.76.76,0,0,1-.54.21.75.75,0,0,1-.54-.21A.89.89,0,0,1,333.07,167.34Zm1.4,10.89h-1.29v-8.57h1.29Z"/><path class="cls-5" d="M340.54,178.38a3.66,3.66,0,0,1-2.88-1.14,4.71,4.71,0,0,1-1-3.24,4.86,4.86,0,0,1,1-3.32,3.73,3.73,0,0,1,2.95-1.17,5.71,5.71,0,0,1,1.23.13,4.1,4.1,0,0,1,1,.31l-.4,1.1a6.1,6.1,0,0,0-.94-.28,3.78,3.78,0,0,0-.89-.11c-1.74,0-2.61,1.1-2.61,3.32a4,4,0,0,0,.63,2.43,2.24,2.24,0,0,0,1.89.84,5.75,5.75,0,0,0,2.2-.46v1.15A4.82,4.82,0,0,1,340.54,178.38Z"/><path class="cls-5" d="M348.14,178.38a3.93,3.93,0,0,1-3-1.15A4.51,4.51,0,0,1,344,174a4.93,4.93,0,0,1,1-3.28,3.36,3.36,0,0,1,2.74-1.22,3.23,3.23,0,0,1,2.55,1.06,4.05,4.05,0,0,1,.93,2.79v.82h-5.89a3.38,3.38,0,0,0,.76,2.29,2.63,2.63,0,0,0,2,.78,6.85,6.85,0,0,0,2.74-.58v1.16a6.3,6.3,0,0,1-1.3.42A7.08,7.08,0,0,1,348.14,178.38Zm-.36-7.79a2.15,2.15,0,0,0-1.64.67,3.08,3.08,0,0,0-.72,1.86h4.47a2.86,2.86,0,0,0-.54-1.87A1.93,1.93,0,0,0,347.78,170.59Z"/><path class="cls-5" d="M374.6,178.23l-3.88-10.13h-.06c.07.8.11,1.76.11,2.86v7.27h-1.23V166.8h2l3.62,9.43h.06l3.65-9.43h2v11.43h-1.33v-7.36c0-.85,0-1.76.11-2.75h-.06l-3.91,10.11Z"/><path class="cls-5" d="M383.58,167.34a.89.89,0,0,1,.21-.65.81.81,0,0,1,1.09,0,.86.86,0,0,1,.23.65.9.9,0,0,1-.23.66.81.81,0,0,1-1.09,0A.93.93,0,0,1,383.58,167.34Zm1.4,10.89h-1.29v-8.57H385Z"/><path class="cls-5" d="M391,178.38a3.66,3.66,0,0,1-2.87-1.14,4.71,4.71,0,0,1-1-3.24,4.85,4.85,0,0,1,1-3.32,3.73,3.73,0,0,1,2.95-1.17,5.87,5.87,0,0,1,1.24.13,4,4,0,0,1,1,.31l-.39,1.1a6.1,6.1,0,0,0-.94-.28,3.92,3.92,0,0,0-.9-.11c-1.74,0-2.61,1.1-2.61,3.32a4,4,0,0,0,.64,2.43,2.2,2.2,0,0,0,1.88.84,5.71,5.71,0,0,0,2.2-.46v1.15A4.76,4.76,0,0,1,391,178.38Z"/><path class="cls-5" d="M399.08,169.51a5.23,5.23,0,0,1,1,.09l-.18,1.2a5,5,0,0,0-.94-.11,2.31,2.31,0,0,0-1.78.84,3.07,3.07,0,0,0-.73,2.1v4.6h-1.3v-8.57h1.07l.15,1.59h.06A3.73,3.73,0,0,1,397.6,170,2.61,2.61,0,0,1,399.08,169.51Z"/><path class="cls-5" d="M408.94,173.94a4.76,4.76,0,0,1-1.06,3.27,3.71,3.71,0,0,1-2.91,1.17,3.84,3.84,0,0,1-2-.54,3.57,3.57,0,0,1-1.38-1.54,5.46,5.46,0,0,1-.48-2.36,4.72,4.72,0,0,1,1.05-3.27,3.7,3.7,0,0,1,2.9-1.16,3.65,3.65,0,0,1,2.86,1.19A4.75,4.75,0,0,1,408.94,173.94Zm-6.53,0a4.07,4.07,0,0,0,.66,2.5,2.6,2.6,0,0,0,3.86,0,4,4,0,0,0,.66-2.5,4,4,0,0,0-.66-2.48,2.65,2.65,0,0,0-3.87,0A4.06,4.06,0,0,0,402.41,173.94Z"/><path class="cls-5" d="M416.65,175.89a2.12,2.12,0,0,1-.89,1.84,4.11,4.11,0,0,1-2.5.65,5.4,5.4,0,0,1-2.65-.54v-1.2a6.3,6.3,0,0,0,1.32.49,5.53,5.53,0,0,0,1.36.18,3.2,3.2,0,0,0,1.57-.32,1.13,1.13,0,0,0,.11-1.85,7.33,7.33,0,0,0-1.69-.84,8.94,8.94,0,0,1-1.7-.77,2.26,2.26,0,0,1-.75-.76,2,2,0,0,1-.25-1,2,2,0,0,1,.85-1.65,4,4,0,0,1,2.34-.6,6.74,6.74,0,0,1,2.7.56l-.46,1.05a6.25,6.25,0,0,0-2.33-.53,2.69,2.69,0,0,0-1.39.29.88.88,0,0,0-.47.8,1,1,0,0,0,.17.58,1.74,1.74,0,0,0,.57.47,14.73,14.73,0,0,0,1.5.63,5.53,5.53,0,0,1,2.06,1.12A2,2,0,0,1,416.65,175.89Z"/><path class="cls-5" d="M422.38,178.38a4,4,0,0,1-3-1.15,4.5,4.5,0,0,1-1.09-3.22,4.93,4.93,0,0,1,1-3.28,3.36,3.36,0,0,1,2.73-1.22,3.21,3.21,0,0,1,2.55,1.06,4,4,0,0,1,.94,2.79v.82h-5.9a3.43,3.43,0,0,0,.76,2.29,2.64,2.64,0,0,0,2,.78,6.8,6.8,0,0,0,2.73-.58v1.16a6.3,6.3,0,0,1-1.3.42A7,7,0,0,1,422.38,178.38Zm-.35-7.79a2.15,2.15,0,0,0-1.65.67,3.08,3.08,0,0,0-.72,1.86h4.48a2.8,2.8,0,0,0-.55-1.87A1.9,1.9,0,0,0,422,170.59Z"/><path class="cls-5" d="M431.57,169.51a5.23,5.23,0,0,1,1,.09l-.18,1.2a4.85,4.85,0,0,0-.93-.11,2.28,2.28,0,0,0-1.78.84,3.08,3.08,0,0,0-.74,2.1v4.6h-1.3v-8.57h1.07l.15,1.59h.06a3.73,3.73,0,0,1,1.15-1.29A2.61,2.61,0,0,1,431.57,169.51Z"/><path class="cls-5" d="M436.84,178.23l-3.25-8.57H435l1.85,5.08c.41,1.19.66,2,.73,2.31h.06c.06-.27.24-.84.55-1.71s1-2.76,2.05-5.68h1.39l-3.25,8.57Z"/><path class="cls-5" d="M443.07,167.34a.85.85,0,0,1,.22-.65.75.75,0,0,1,.54-.21.76.76,0,0,1,.54.21.86.86,0,0,1,.23.65.9.9,0,0,1-.23.66.76.76,0,0,1-.54.21.75.75,0,0,1-.54-.21A.89.89,0,0,1,443.07,167.34Zm1.4,10.89h-1.29v-8.57h1.29Z"/><path class="cls-5" d="M450.54,178.38a3.66,3.66,0,0,1-2.88-1.14,4.71,4.71,0,0,1-1-3.24,4.86,4.86,0,0,1,1-3.32,3.73,3.73,0,0,1,2.95-1.17,5.71,5.71,0,0,1,1.23.13,4.1,4.1,0,0,1,1,.31l-.4,1.1a6.1,6.1,0,0,0-.94-.28,3.78,3.78,0,0,0-.89-.11c-1.74,0-2.61,1.1-2.61,3.32a4,4,0,0,0,.63,2.43,2.24,2.24,0,0,0,1.89.84,5.75,5.75,0,0,0,2.2-.46v1.15A4.82,4.82,0,0,1,450.54,178.38Z"/><path class="cls-5" d="M458.14,178.38a3.93,3.93,0,0,1-3-1.15A4.51,4.51,0,0,1,454,174a4.93,4.93,0,0,1,1-3.28,3.36,3.36,0,0,1,2.74-1.22,3.23,3.23,0,0,1,2.55,1.06,4.05,4.05,0,0,1,.93,2.79v.82h-5.89a3.38,3.38,0,0,0,.76,2.29,2.63,2.63,0,0,0,2,.78,6.85,6.85,0,0,0,2.74-.58v1.16a6.3,6.3,0,0,1-1.3.42A7.08,7.08,0,0,1,458.14,178.38Zm-.36-7.79a2.15,2.15,0,0,0-1.64.67,3.08,3.08,0,0,0-.72,1.86h4.47a2.86,2.86,0,0,0-.54-1.87A1.93,1.93,0,0,0,457.78,170.59Z"/><path class="cls-5" d="M484.6,178.23l-3.88-10.13h-.06c.07.8.11,1.76.11,2.86v7.27h-1.23V166.8h2l3.62,9.43h.06l3.65-9.43h2v11.43h-1.33v-7.36c0-.85,0-1.76.11-2.75h-.06l-3.91,10.11Z"/><path class="cls-5" d="M493.58,167.34a.89.89,0,0,1,.21-.65.81.81,0,0,1,1.09,0,.86.86,0,0,1,.23.65.9.9,0,0,1-.23.66.81.81,0,0,1-1.09,0A.93.93,0,0,1,493.58,167.34Zm1.4,10.89h-1.29v-8.57H495Z"/><path class="cls-5" d="M501,178.38a3.66,3.66,0,0,1-2.87-1.14,4.71,4.71,0,0,1-1-3.24,4.85,4.85,0,0,1,1-3.32,3.73,3.73,0,0,1,2.95-1.17,5.87,5.87,0,0,1,1.24.13,4,4,0,0,1,1,.31l-.39,1.1a6.1,6.1,0,0,0-.94-.28,3.92,3.92,0,0,0-.9-.11c-1.74,0-2.61,1.1-2.61,3.32a4,4,0,0,0,.64,2.43,2.2,2.2,0,0,0,1.88.84,5.71,5.71,0,0,0,2.2-.46v1.15A4.76,4.76,0,0,1,501,178.38Z"/><path class="cls-5" d="M509.08,169.51a5.23,5.23,0,0,1,1,.09l-.18,1.2a5,5,0,0,0-.94-.11,2.31,2.31,0,0,0-1.78.84,3.07,3.07,0,0,0-.73,2.1v4.6h-1.3v-8.57h1.07l.15,1.59h.06A3.73,3.73,0,0,1,507.6,170,2.61,2.61,0,0,1,509.08,169.51Z"/><path class="cls-5" d="M518.94,173.94a4.76,4.76,0,0,1-1.06,3.27,3.71,3.71,0,0,1-2.91,1.17,3.84,3.84,0,0,1-2-.54,3.57,3.57,0,0,1-1.38-1.54,5.46,5.46,0,0,1-.48-2.36,4.72,4.72,0,0,1,1.05-3.27,3.7,3.7,0,0,1,2.9-1.16,3.65,3.65,0,0,1,2.86,1.19A4.75,4.75,0,0,1,518.94,173.94Zm-6.53,0a4.07,4.07,0,0,0,.66,2.5,2.6,2.6,0,0,0,3.86,0,4,4,0,0,0,.66-2.5,4,4,0,0,0-.66-2.48,2.65,2.65,0,0,0-3.87,0A4.06,4.06,0,0,0,512.41,173.94Z"/><path class="cls-5" d="M526.65,175.89a2.12,2.12,0,0,1-.89,1.84,4.11,4.11,0,0,1-2.5.65,5.4,5.4,0,0,1-2.65-.54v-1.2a6.3,6.3,0,0,0,1.32.49,5.53,5.53,0,0,0,1.36.18,3.2,3.2,0,0,0,1.57-.32,1.13,1.13,0,0,0,.11-1.85,7.33,7.33,0,0,0-1.69-.84,8.94,8.94,0,0,1-1.7-.77,2.26,2.26,0,0,1-.75-.76,2,2,0,0,1-.25-1,2,2,0,0,1,.85-1.65,4,4,0,0,1,2.34-.6,6.74,6.74,0,0,1,2.7.56l-.46,1.05a6.25,6.25,0,0,0-2.33-.53,2.69,2.69,0,0,0-1.39.29.88.88,0,0,0-.47.8,1,1,0,0,0,.17.58,1.74,1.74,0,0,0,.57.47,14.73,14.73,0,0,0,1.5.63,5.53,5.53,0,0,1,2.06,1.12A2,2,0,0,1,526.65,175.89Z"/><path class="cls-5" d="M532.38,178.38a4,4,0,0,1-3-1.15,4.5,4.5,0,0,1-1.09-3.22,4.93,4.93,0,0,1,1-3.28,3.36,3.36,0,0,1,2.73-1.22,3.21,3.21,0,0,1,2.55,1.06,4,4,0,0,1,.94,2.79v.82h-5.9a3.43,3.43,0,0,0,.76,2.29,2.64,2.64,0,0,0,2,.78,6.8,6.8,0,0,0,2.73-.58v1.16a6.3,6.3,0,0,1-1.3.42A7,7,0,0,1,532.38,178.38Zm-.35-7.79a2.15,2.15,0,0,0-1.65.67,3.08,3.08,0,0,0-.72,1.86h4.48a2.8,2.8,0,0,0-.55-1.87A1.9,1.9,0,0,0,532,170.59Z"/><path class="cls-5" d="M541.57,169.51a5.23,5.23,0,0,1,1,.09l-.18,1.2a4.85,4.85,0,0,0-.93-.11,2.28,2.28,0,0,0-1.78.84,3.08,3.08,0,0,0-.74,2.1v4.6h-1.3v-8.57h1.07l.15,1.59h.06a3.73,3.73,0,0,1,1.15-1.29A2.61,2.61,0,0,1,541.57,169.51Z"/><path class="cls-5" d="M546.84,178.23l-3.25-8.57H545l1.85,5.08c.41,1.19.66,2,.73,2.31h.06c.06-.27.24-.84.55-1.71s1-2.76,2.05-5.68h1.39l-3.25,8.57Z"/><path class="cls-5" d="M553.07,167.34a.85.85,0,0,1,.22-.65.75.75,0,0,1,.54-.21.76.76,0,0,1,.54.21.86.86,0,0,1,.23.65.9.9,0,0,1-.23.66.76.76,0,0,1-.54.21.75.75,0,0,1-.54-.21A.89.89,0,0,1,553.07,167.34Zm1.4,10.89h-1.29v-8.57h1.29Z"/><path class="cls-5" d="M560.54,178.38a3.66,3.66,0,0,1-2.88-1.14,4.71,4.71,0,0,1-1-3.24,4.86,4.86,0,0,1,1-3.32,3.73,3.73,0,0,1,3-1.17,5.71,5.71,0,0,1,1.23.13,4.1,4.1,0,0,1,1,.31l-.4,1.1a6.1,6.1,0,0,0-.94-.28,3.78,3.78,0,0,0-.89-.11c-1.74,0-2.61,1.1-2.61,3.32a4,4,0,0,0,.63,2.43,2.24,2.24,0,0,0,1.89.84,5.75,5.75,0,0,0,2.2-.46v1.15A4.82,4.82,0,0,1,560.54,178.38Z"/><path class="cls-5" d="M568.14,178.38a3.93,3.93,0,0,1-3-1.15A4.51,4.51,0,0,1,564,174a4.93,4.93,0,0,1,1-3.28,3.36,3.36,0,0,1,2.74-1.22,3.23,3.23,0,0,1,2.55,1.06,4.05,4.05,0,0,1,.93,2.79v.82h-5.89a3.38,3.38,0,0,0,.76,2.29,2.63,2.63,0,0,0,2,.78,6.85,6.85,0,0,0,2.74-.58v1.16a6.3,6.3,0,0,1-1.3.42A7.08,7.08,0,0,1,568.14,178.38Zm-.36-7.79a2.15,2.15,0,0,0-1.64.67,3.08,3.08,0,0,0-.72,1.86h4.47a2.86,2.86,0,0,0-.54-1.87A1.93,1.93,0,0,0,567.78,170.59Z"/><path class="cls-5" d="M594.6,178.23l-3.88-10.13h-.06c.07.8.11,1.76.11,2.86v7.27h-1.23V166.8h2l3.62,9.43h.06l3.65-9.43h2v11.43h-1.33v-7.36c0-.85,0-1.76.11-2.75h-.06l-3.91,10.11Z"/><path class="cls-5" d="M603.58,167.34a.89.89,0,0,1,.21-.65.81.81,0,0,1,1.09,0,.86.86,0,0,1,.23.65.9.9,0,0,1-.23.66.81.81,0,0,1-1.09,0A.93.93,0,0,1,603.58,167.34Zm1.4,10.89h-1.29v-8.57H605Z"/><path class="cls-5" d="M611,178.38a3.66,3.66,0,0,1-2.87-1.14,4.71,4.71,0,0,1-1-3.24,4.85,4.85,0,0,1,1-3.32,3.73,3.73,0,0,1,3-1.17,5.87,5.87,0,0,1,1.24.13,4,4,0,0,1,1,.31l-.39,1.1a6.1,6.1,0,0,0-.94-.28,3.92,3.92,0,0,0-.9-.11c-1.74,0-2.61,1.1-2.61,3.32a4,4,0,0,0,.64,2.43,2.2,2.2,0,0,0,1.88.84,5.71,5.71,0,0,0,2.2-.46v1.15A4.76,4.76,0,0,1,611,178.38Z"/><path class="cls-5" d="M619.08,169.51a5.23,5.23,0,0,1,1,.09l-.18,1.2a5,5,0,0,0-.94-.11,2.31,2.31,0,0,0-1.78.84,3.07,3.07,0,0,0-.73,2.1v4.6h-1.3v-8.57h1.07l.15,1.59h.06A3.73,3.73,0,0,1,617.6,170,2.61,2.61,0,0,1,619.08,169.51Z"/><path class="cls-5" d="M628.94,173.94a4.76,4.76,0,0,1-1.06,3.27,3.71,3.71,0,0,1-2.91,1.17,3.84,3.84,0,0,1-2-.54,3.57,3.57,0,0,1-1.38-1.54,5.46,5.46,0,0,1-.48-2.36,4.72,4.72,0,0,1,1-3.27,3.7,3.7,0,0,1,2.9-1.16,3.65,3.65,0,0,1,2.86,1.19A4.75,4.75,0,0,1,628.94,173.94Zm-6.53,0a4.07,4.07,0,0,0,.66,2.5,2.6,2.6,0,0,0,3.86,0,4,4,0,0,0,.66-2.5,4,4,0,0,0-.66-2.48,2.65,2.65,0,0,0-3.87,0A4.06,4.06,0,0,0,622.41,173.94Z"/><path class="cls-5" d="M636.65,175.89a2.12,2.12,0,0,1-.89,1.84,4.11,4.11,0,0,1-2.5.65,5.4,5.4,0,0,1-2.65-.54v-1.2a6.3,6.3,0,0,0,1.32.49,5.53,5.53,0,0,0,1.36.18,3.2,3.2,0,0,0,1.57-.32,1.13,1.13,0,0,0,.11-1.85,7.33,7.33,0,0,0-1.69-.84,8.94,8.94,0,0,1-1.7-.77,2.26,2.26,0,0,1-.75-.76,2,2,0,0,1-.25-1,2,2,0,0,1,.85-1.65,4,4,0,0,1,2.34-.6,6.74,6.74,0,0,1,2.7.56l-.46,1.05a6.25,6.25,0,0,0-2.33-.53,2.69,2.69,0,0,0-1.39.29.88.88,0,0,0-.47.8,1,1,0,0,0,.17.58,1.74,1.74,0,0,0,.57.47,14.73,14.73,0,0,0,1.5.63,5.53,5.53,0,0,1,2.06,1.12A2,2,0,0,1,636.65,175.89Z"/><path class="cls-5" d="M642.38,178.38a4,4,0,0,1-3-1.15,4.5,4.5,0,0,1-1.09-3.22,4.93,4.93,0,0,1,1-3.28,3.36,3.36,0,0,1,2.73-1.22,3.21,3.21,0,0,1,2.55,1.06,4,4,0,0,1,.94,2.79v.82h-5.9a3.43,3.43,0,0,0,.76,2.29,2.64,2.64,0,0,0,2,.78,6.8,6.8,0,0,0,2.73-.58v1.16a6.3,6.3,0,0,1-1.3.42A7,7,0,0,1,642.38,178.38Zm-.35-7.79a2.15,2.15,0,0,0-1.65.67,3.08,3.08,0,0,0-.72,1.86h4.48a2.8,2.8,0,0,0-.55-1.87A1.9,1.9,0,0,0,642,170.59Z"/><path class="cls-5" d="M651.57,169.51a5.23,5.23,0,0,1,1,.09l-.18,1.2a4.85,4.85,0,0,0-.93-.11,2.28,2.28,0,0,0-1.78.84,3.08,3.08,0,0,0-.74,2.1v4.6h-1.3v-8.57h1.07l.15,1.59h.06a3.73,3.73,0,0,1,1.15-1.29A2.61,2.61,0,0,1,651.57,169.51Z"/><path class="cls-5" d="M656.84,178.23l-3.25-8.57H655l1.85,5.08c.41,1.19.66,2,.73,2.31h.06c.06-.27.24-.84.55-1.71s1-2.76,2.05-5.68h1.39l-3.25,8.57Z"/><path class="cls-5" d="M663.07,167.34a.85.85,0,0,1,.22-.65.75.75,0,0,1,.54-.21.76.76,0,0,1,.54.21.86.86,0,0,1,.23.65.9.9,0,0,1-.23.66.76.76,0,0,1-.54.21.75.75,0,0,1-.54-.21A.89.89,0,0,1,663.07,167.34Zm1.4,10.89h-1.29v-8.57h1.29Z"/><path class="cls-5" d="M670.54,178.38a3.66,3.66,0,0,1-2.88-1.14,4.71,4.71,0,0,1-1-3.24,4.86,4.86,0,0,1,1-3.32,3.73,3.73,0,0,1,3-1.17,5.71,5.71,0,0,1,1.23.13,4.1,4.1,0,0,1,1,.31l-.4,1.1a6.1,6.1,0,0,0-.94-.28,3.78,3.78,0,0,0-.89-.11c-1.74,0-2.61,1.1-2.61,3.32a4,4,0,0,0,.63,2.43,2.24,2.24,0,0,0,1.89.84,5.75,5.75,0,0,0,2.2-.46v1.15A4.82,4.82,0,0,1,670.54,178.38Z"/><path class="cls-5" d="M678.14,178.38a3.93,3.93,0,0,1-3-1.15A4.51,4.51,0,0,1,674,174a4.93,4.93,0,0,1,1-3.28,3.36,3.36,0,0,1,2.74-1.22,3.23,3.23,0,0,1,2.55,1.06,4.05,4.05,0,0,1,.93,2.79v.82h-5.89a3.38,3.38,0,0,0,.76,2.29,2.63,2.63,0,0,0,2,.78,6.85,6.85,0,0,0,2.74-.58v1.16a6.3,6.3,0,0,1-1.3.42A7.08,7.08,0,0,1,678.14,178.38Zm-.36-7.79a2.15,2.15,0,0,0-1.64.67,3.08,3.08,0,0,0-.72,1.86h4.47a2.86,2.86,0,0,0-.54-1.87A1.93,1.93,0,0,0,677.78,170.59Z"/><path class="cls-5" d="M264.58,270.88l-3.87-10.13h-.06c.07.8.11,1.76.11,2.86v7.27h-1.23V259.45h2l3.62,9.43h.06l3.65-9.43h2v11.43h-1.33v-7.36c0-.85,0-1.76.11-2.75h-.06l-3.9,10.11Z"/><path class="cls-5" d="M273.56,260a.85.85,0,0,1,.22-.65.81.81,0,0,1,1.09,0,.85.85,0,0,1,.22.65.84.84,0,0,1-.22.65.79.79,0,0,1-1.09,0A.84.84,0,0,1,273.56,260ZM275,270.88h-1.3v-8.57H275Z"/><path class="cls-5" d="M281,271a3.66,3.66,0,0,1-2.88-1.14,4.73,4.73,0,0,1-1-3.24,4.86,4.86,0,0,1,1-3.32,3.73,3.73,0,0,1,2.95-1.17,5.71,5.71,0,0,1,1.23.13,4.1,4.1,0,0,1,1,.31l-.4,1.1a5.78,5.78,0,0,0-.94-.28,3.84,3.84,0,0,0-.89-.12q-2.61,0-2.61,3.33a4,4,0,0,0,.63,2.42,2.22,2.22,0,0,0,1.89.85,5.75,5.75,0,0,0,2.2-.46v1.15A4.82,4.82,0,0,1,281,271Z"/><path class="cls-5" d="M289.06,262.16a5.23,5.23,0,0,1,1,.09l-.17,1.2a5,5,0,0,0-.94-.11,2.28,2.28,0,0,0-1.78.84,3.08,3.08,0,0,0-.74,2.1v4.6h-1.29v-8.57h1.07l.14,1.59h.07a3.71,3.71,0,0,1,1.14-1.29A2.61,2.61,0,0,1,289.06,262.16Z"/><path class="cls-5" d="M298.92,266.59a4.76,4.76,0,0,1-1.05,3.27A3.73,3.73,0,0,1,295,271a3.83,3.83,0,0,1-2-.54,3.51,3.51,0,0,1-1.38-1.54,5.46,5.46,0,0,1-.48-2.36,4.72,4.72,0,0,1,1-3.27,3.74,3.74,0,0,1,2.91-1.16,3.59,3.59,0,0,1,2.85,1.19A4.7,4.7,0,0,1,298.92,266.59Zm-6.52,0a4.07,4.07,0,0,0,.66,2.5A2.28,2.28,0,0,0,295,270a2.3,2.3,0,0,0,1.93-.86,4,4,0,0,0,.66-2.5,4,4,0,0,0-.66-2.48,2.65,2.65,0,0,0-3.87,0A4.06,4.06,0,0,0,292.4,266.59Z"/><path class="cls-5" d="M306.64,268.54a2.14,2.14,0,0,1-.89,1.84,4.13,4.13,0,0,1-2.5.65,5.44,5.44,0,0,1-2.66-.54v-1.2a6.38,6.38,0,0,0,1.33.49,5.47,5.47,0,0,0,1.36.18,3.13,3.13,0,0,0,1.56-.32,1.12,1.12,0,0,0,.12-1.85,7.46,7.46,0,0,0-1.7-.84,8.78,8.78,0,0,1-1.69-.77,2.26,2.26,0,0,1-.75-.76,2.07,2.07,0,0,1,.6-2.66,4,4,0,0,1,2.34-.6,6.74,6.74,0,0,1,2.7.56l-.46,1a6.3,6.3,0,0,0-2.34-.53,2.72,2.72,0,0,0-1.39.29.9.9,0,0,0-.47.8.93.93,0,0,0,.18.58,1.74,1.74,0,0,0,.57.47,14.73,14.73,0,0,0,1.5.63,5.63,5.63,0,0,1,2.05,1.11A2,2,0,0,1,306.64,268.54Z"/><path class="cls-5" d="M312.37,271a3.93,3.93,0,0,1-3-1.15,4.49,4.49,0,0,1-1.1-3.22,5,5,0,0,1,1-3.28,3.36,3.36,0,0,1,2.74-1.22,3.26,3.26,0,0,1,2.55,1,4.1,4.1,0,0,1,.93,2.8v.82h-5.89a3.38,3.38,0,0,0,.76,2.29,2.63,2.63,0,0,0,2,.78,6.85,6.85,0,0,0,2.74-.58v1.16a6.3,6.3,0,0,1-1.3.42A7.08,7.08,0,0,1,312.37,271Zm-.36-7.79a2.15,2.15,0,0,0-1.64.67,3.08,3.08,0,0,0-.72,1.86h4.47a2.9,2.9,0,0,0-.54-1.88A2,2,0,0,0,312,263.24Z"/><path class="cls-5" d="M321.56,262.16a5.23,5.23,0,0,1,1,.09l-.18,1.2a5,5,0,0,0-.94-.11,2.31,2.31,0,0,0-1.78.84,3.07,3.07,0,0,0-.73,2.1v4.6h-1.3v-8.57h1.07l.15,1.59h.06a3.73,3.73,0,0,1,1.15-1.29A2.61,2.61,0,0,1,321.56,262.16Z"/><path class="cls-5" d="M326.83,270.88l-3.25-8.57H325l1.84,5.08c.42,1.19.66,2,.74,2.31h.06q.09-.4.54-1.71t2.05-5.68h1.39l-3.25,8.57Z"/><path class="cls-5" d="M333.05,260a.89.89,0,0,1,.22-.65.81.81,0,0,1,1.09,0,.86.86,0,0,1,.23.65.84.84,0,0,1-.23.65.79.79,0,0,1-1.09,0A.88.88,0,0,1,333.05,260Zm1.41,10.89h-1.3v-8.57h1.3Z"/><path class="cls-5" d="M340.53,271a3.66,3.66,0,0,1-2.88-1.14,4.73,4.73,0,0,1-1-3.24,4.85,4.85,0,0,1,1-3.32,3.74,3.74,0,0,1,2.95-1.17,5.81,5.81,0,0,1,1.24.13,4.26,4.26,0,0,1,1,.31l-.4,1.1a6.1,6.1,0,0,0-.94-.28,4,4,0,0,0-.9-.12q-2.61,0-2.61,3.33a3.9,3.9,0,0,0,.64,2.42,2.19,2.19,0,0,0,1.89.85,5.7,5.7,0,0,0,2.19-.46v1.15A4.74,4.74,0,0,1,340.53,271Z"/><path class="cls-5" d="M348.12,271a3.93,3.93,0,0,1-3-1.15,4.45,4.45,0,0,1-1.1-3.22,5,5,0,0,1,1-3.28,3.36,3.36,0,0,1,2.74-1.22,3.22,3.22,0,0,1,2.54,1,4.05,4.05,0,0,1,.94,2.8v.82h-5.9a3.43,3.43,0,0,0,.76,2.29,2.65,2.65,0,0,0,2,.78,6.8,6.8,0,0,0,2.73-.58v1.16a6.11,6.11,0,0,1-1.3.42A7,7,0,0,1,348.12,271Zm-.35-7.79a2.13,2.13,0,0,0-1.64.67,3.15,3.15,0,0,0-.73,1.86h4.48a2.85,2.85,0,0,0-.55-1.88A1.92,1.92,0,0,0,347.77,263.24Z"/><path class="cls-5" d="M280.57,284.26a5.78,5.78,0,0,1-1.53,4.32,6.08,6.08,0,0,1-4.42,1.5h-3.16V278.65H275a5.12,5.12,0,0,1,5.61,5.61Zm-1.4,0a4.6,4.6,0,0,0-1.12-3.36,4.49,4.49,0,0,0-3.34-1.14h-1.93v9.13h1.62a4.92,4.92,0,0,0,3.57-1.17A4.62,4.62,0,0,0,279.17,284.3Z"/><path class="cls-5" d="M288,290.08l-.26-1.22h-.06a3.74,3.74,0,0,1-1.28,1.09,3.94,3.94,0,0,1-1.59.28,2.9,2.9,0,0,1-2-.65,2.4,2.4,0,0,1-.72-1.87q0-2.59,4.15-2.72l1.45-.05v-.53a2.17,2.17,0,0,0-.43-1.49,1.79,1.79,0,0,0-1.39-.48,5.63,5.63,0,0,0-2.42.66l-.4-1a6.32,6.32,0,0,1,2.9-.74,3.28,3.28,0,0,1,2.27.68,2.86,2.86,0,0,1,.74,2.18v5.85Zm-2.93-.92a2.65,2.65,0,0,0,1.9-.66,2.47,2.47,0,0,0,.69-1.86v-.77l-1.3.05a4.83,4.83,0,0,0-2.23.48,1.45,1.45,0,0,0-.68,1.32,1.31,1.31,0,0,0,.43,1.07A1.73,1.73,0,0,0,285.11,289.16Z"/><path class="cls-5" d="M294.41,289.16a4.65,4.65,0,0,0,.66-.05,4.59,4.59,0,0,0,.51-.1v1a2.53,2.53,0,0,1-.62.17,5.12,5.12,0,0,1-.74.06c-1.65,0-2.48-.87-2.48-2.61v-5.1h-1.23v-.62l1.23-.54.54-1.83H293v2h2.49v1H293v5a1.76,1.76,0,0,0,.37,1.19A1.3,1.3,0,0,0,294.41,289.16Z"/><path class="cls-5" d="M302.82,290.08l-.26-1.22h-.06a3.74,3.74,0,0,1-1.28,1.09,3.94,3.94,0,0,1-1.59.28,2.92,2.92,0,0,1-2-.65,2.4,2.4,0,0,1-.72-1.87q0-2.59,4.15-2.72l1.45-.05v-.53a2.17,2.17,0,0,0-.43-1.49,1.79,1.79,0,0,0-1.39-.48,5.63,5.63,0,0,0-2.42.66l-.4-1a6.09,6.09,0,0,1,1.39-.54,6,6,0,0,1,1.51-.2,3.28,3.28,0,0,1,2.27.68,2.86,2.86,0,0,1,.74,2.18v5.85Zm-2.93-.92a2.65,2.65,0,0,0,1.9-.66,2.47,2.47,0,0,0,.69-1.86v-.77l-1.3.05a4.83,4.83,0,0,0-2.23.48,1.45,1.45,0,0,0-.68,1.32,1.31,1.31,0,0,0,.43,1.07A1.73,1.73,0,0,0,299.89,289.16Z"/><path class="cls-5" d="M310.33,281.37a3.17,3.17,0,0,1,2.62,1.16,6.17,6.17,0,0,1,0,6.53,3.16,3.16,0,0,1-2.61,1.17,3.64,3.64,0,0,1-1.53-.31,2.86,2.86,0,0,1-1.16-.95h-.09l-.27,1.11h-.93V277.92h1.29v2.95c0,.66,0,1.26-.06,1.78h.06A3.1,3.1,0,0,1,310.33,281.37Zm-.19,1.09a2.26,2.26,0,0,0-1.91.76,5.87,5.87,0,0,0,0,5.15,2.3,2.3,0,0,0,1.93.78,2,2,0,0,0,1.79-.87,4.53,4.53,0,0,0,.58-2.51,4.32,4.32,0,0,0-.58-2.49A2.09,2.09,0,0,0,310.14,282.46Z"/><path class="cls-5" d="M321.43,290.08l-.26-1.22h-.06a3.74,3.74,0,0,1-1.28,1.09,3.87,3.87,0,0,1-1.59.28,2.92,2.92,0,0,1-2-.65,2.4,2.4,0,0,1-.72-1.87q0-2.59,4.15-2.72l1.45-.05v-.53a2.17,2.17,0,0,0-.43-1.49,1.79,1.79,0,0,0-1.39-.48,5.63,5.63,0,0,0-2.42.66l-.4-1a6.09,6.09,0,0,1,1.39-.54,6,6,0,0,1,1.51-.2,3.28,3.28,0,0,1,2.27.68,2.86,2.86,0,0,1,.74,2.18v5.85Zm-2.93-.92a2.65,2.65,0,0,0,1.9-.66,2.47,2.47,0,0,0,.69-1.86v-.77l-1.3.05a4.83,4.83,0,0,0-2.23.48,1.45,1.45,0,0,0-.68,1.32,1.31,1.31,0,0,0,.43,1.07A1.73,1.73,0,0,0,318.5,289.16Z"/><path class="cls-5" d="M330.47,287.74a2.14,2.14,0,0,1-.89,1.84,4.13,4.13,0,0,1-2.5.65,5.44,5.44,0,0,1-2.66-.54v-1.2a6.38,6.38,0,0,0,1.33.49,5.47,5.47,0,0,0,1.36.18,3.13,3.13,0,0,0,1.56-.32,1.12,1.12,0,0,0,.12-1.85,7.46,7.46,0,0,0-1.7-.84,8.78,8.78,0,0,1-1.69-.77,2.26,2.26,0,0,1-.75-.76,1.88,1.88,0,0,1-.25-1,1.93,1.93,0,0,1,.85-1.66,4,4,0,0,1,2.34-.6,6.74,6.74,0,0,1,2.7.56l-.46,1.05a6.3,6.3,0,0,0-2.34-.53,2.74,2.74,0,0,0-1.39.29.9.9,0,0,0-.47.8,1,1,0,0,0,.18.59,1.87,1.87,0,0,0,.57.46,14.73,14.73,0,0,0,1.5.63,5.47,5.47,0,0,1,2.05,1.12A1.94,1.94,0,0,1,330.47,287.74Z"/><path class="cls-5" d="M336.2,290.23a3.93,3.93,0,0,1-3-1.15,4.51,4.51,0,0,1-1.1-3.21,4.94,4.94,0,0,1,1-3.29,3.36,3.36,0,0,1,2.74-1.22,3.23,3.23,0,0,1,2.55,1.06,4.05,4.05,0,0,1,.93,2.79V286h-5.89a3.38,3.38,0,0,0,.76,2.29,2.63,2.63,0,0,0,2,.78,6.81,6.81,0,0,0,2.74-.58v1.16a6.3,6.3,0,0,1-1.3.42A7.08,7.08,0,0,1,336.2,290.23Zm-.36-7.79a2.12,2.12,0,0,0-1.64.68,3,3,0,0,0-.72,1.85H338a2.86,2.86,0,0,0-.54-1.87A1.93,1.93,0,0,0,335.84,282.44Z"/><path class="cls-5" d="M374.58,270.88l-3.87-10.13h-.06c.07.8.11,1.76.11,2.86v7.27h-1.23V259.45h2l3.62,9.43h.06l3.65-9.43h2v11.43h-1.33v-7.36c0-.85,0-1.76.11-2.75h-.06l-3.9,10.11Z"/><path class="cls-5" d="M383.56,260a.85.85,0,0,1,.22-.65.81.81,0,0,1,1.09,0,.85.85,0,0,1,.22.65.84.84,0,0,1-.22.65.79.79,0,0,1-1.09,0A.84.84,0,0,1,383.56,260ZM385,270.88h-1.3v-8.57H385Z"/><path class="cls-5" d="M391,271a3.66,3.66,0,0,1-2.88-1.14,4.73,4.73,0,0,1-1-3.24,4.86,4.86,0,0,1,1-3.32,3.73,3.73,0,0,1,2.95-1.17,5.71,5.71,0,0,1,1.23.13,4.1,4.1,0,0,1,1,.31l-.4,1.1a5.78,5.78,0,0,0-.94-.28,3.84,3.84,0,0,0-.89-.12q-2.61,0-2.61,3.33a4,4,0,0,0,.63,2.42,2.22,2.22,0,0,0,1.89.85,5.75,5.75,0,0,0,2.2-.46v1.15A4.82,4.82,0,0,1,391,271Z"/><path class="cls-5" d="M399.06,262.16a5.23,5.23,0,0,1,1,.09l-.17,1.2a5,5,0,0,0-.94-.11,2.28,2.28,0,0,0-1.78.84,3.08,3.08,0,0,0-.74,2.1v4.6h-1.29v-8.57h1.07l.14,1.59h.07a3.71,3.71,0,0,1,1.14-1.29A2.61,2.61,0,0,1,399.06,262.16Z"/><path class="cls-5" d="M408.92,266.59a4.76,4.76,0,0,1-1.05,3.27A3.73,3.73,0,0,1,405,271a3.83,3.83,0,0,1-2-.54,3.51,3.51,0,0,1-1.38-1.54,5.46,5.46,0,0,1-.48-2.36,4.72,4.72,0,0,1,1-3.27,3.74,3.74,0,0,1,2.91-1.16,3.59,3.59,0,0,1,2.85,1.19A4.7,4.7,0,0,1,408.92,266.59Zm-6.52,0a4.07,4.07,0,0,0,.66,2.5A2.28,2.28,0,0,0,405,270a2.3,2.3,0,0,0,1.93-.86,4,4,0,0,0,.66-2.5,4,4,0,0,0-.66-2.48,2.65,2.65,0,0,0-3.87,0A4.06,4.06,0,0,0,402.4,266.59Z"/><path class="cls-5" d="M416.64,268.54a2.14,2.14,0,0,1-.89,1.84,4.13,4.13,0,0,1-2.5.65,5.44,5.44,0,0,1-2.66-.54v-1.2a6.38,6.38,0,0,0,1.33.49,5.47,5.47,0,0,0,1.36.18,3.13,3.13,0,0,0,1.56-.32,1.12,1.12,0,0,0,.12-1.85,7.46,7.46,0,0,0-1.7-.84,8.78,8.78,0,0,1-1.69-.77,2.26,2.26,0,0,1-.75-.76,2.07,2.07,0,0,1,.6-2.66,4,4,0,0,1,2.34-.6,6.74,6.74,0,0,1,2.7.56l-.46,1a6.3,6.3,0,0,0-2.34-.53,2.72,2.72,0,0,0-1.39.29.9.9,0,0,0-.47.8.93.93,0,0,0,.18.58,1.74,1.74,0,0,0,.57.47,14.73,14.73,0,0,0,1.5.63,5.63,5.63,0,0,1,2.05,1.11A2,2,0,0,1,416.64,268.54Z"/><path class="cls-5" d="M422.37,271a3.93,3.93,0,0,1-3-1.15,4.49,4.49,0,0,1-1.1-3.22,5,5,0,0,1,1-3.28,3.36,3.36,0,0,1,2.74-1.22,3.26,3.26,0,0,1,2.55,1,4.1,4.1,0,0,1,.93,2.8v.82h-5.89a3.38,3.38,0,0,0,.76,2.29,2.63,2.63,0,0,0,2,.78,6.85,6.85,0,0,0,2.74-.58v1.16a6.3,6.3,0,0,1-1.3.42A7.08,7.08,0,0,1,422.37,271Zm-.36-7.79a2.15,2.15,0,0,0-1.64.67,3.08,3.08,0,0,0-.72,1.86h4.47a2.9,2.9,0,0,0-.54-1.88A2,2,0,0,0,422,263.24Z"/><path class="cls-5" d="M431.56,262.16a5.23,5.23,0,0,1,1,.09l-.18,1.2a5,5,0,0,0-.94-.11,2.31,2.31,0,0,0-1.78.84,3.07,3.07,0,0,0-.73,2.1v4.6h-1.3v-8.57h1.07l.15,1.59h.06a3.73,3.73,0,0,1,1.15-1.29A2.61,2.61,0,0,1,431.56,262.16Z"/><path class="cls-5" d="M436.83,270.88l-3.25-8.57H435l1.84,5.08c.42,1.19.66,2,.74,2.31h.06q.09-.4.54-1.71t2.05-5.68h1.39l-3.25,8.57Z"/><path class="cls-5" d="M443.05,260a.89.89,0,0,1,.22-.65.81.81,0,0,1,1.09,0,.86.86,0,0,1,.23.65.84.84,0,0,1-.23.65.79.79,0,0,1-1.09,0A.88.88,0,0,1,443.05,260Zm1.41,10.89h-1.3v-8.57h1.3Z"/><path class="cls-5" d="M450.53,271a3.66,3.66,0,0,1-2.88-1.14,4.73,4.73,0,0,1-1-3.24,4.85,4.85,0,0,1,1-3.32,3.74,3.74,0,0,1,2.95-1.17,5.81,5.81,0,0,1,1.24.13,4.26,4.26,0,0,1,1,.31l-.4,1.1a6.1,6.1,0,0,0-.94-.28,4,4,0,0,0-.9-.12q-2.61,0-2.61,3.33a3.9,3.9,0,0,0,.64,2.42,2.19,2.19,0,0,0,1.89.85,5.7,5.7,0,0,0,2.19-.46v1.15A4.74,4.74,0,0,1,450.53,271Z"/><path class="cls-5" d="M458.12,271a3.93,3.93,0,0,1-3-1.15,4.45,4.45,0,0,1-1.1-3.22,5,5,0,0,1,1-3.28,3.36,3.36,0,0,1,2.74-1.22,3.22,3.22,0,0,1,2.54,1,4.05,4.05,0,0,1,.94,2.8v.82h-5.9a3.43,3.43,0,0,0,.76,2.29,2.65,2.65,0,0,0,2,.78,6.8,6.8,0,0,0,2.73-.58v1.16a6.11,6.11,0,0,1-1.3.42A7,7,0,0,1,458.12,271Zm-.35-7.79a2.13,2.13,0,0,0-1.64.67,3.15,3.15,0,0,0-.73,1.86h4.48a2.85,2.85,0,0,0-.55-1.88A1.92,1.92,0,0,0,457.77,263.24Z"/><path class="cls-5" d="M390.57,284.26a5.78,5.78,0,0,1-1.53,4.32,6.08,6.08,0,0,1-4.42,1.5h-3.16V278.65H385a5.12,5.12,0,0,1,5.61,5.61Zm-1.4,0a4.6,4.6,0,0,0-1.12-3.36,4.49,4.49,0,0,0-3.34-1.14h-1.93v9.13h1.62a4.92,4.92,0,0,0,3.57-1.17A4.62,4.62,0,0,0,389.17,284.3Z"/><path class="cls-5" d="M398,290.08l-.26-1.22h-.06a3.74,3.74,0,0,1-1.28,1.09,3.94,3.94,0,0,1-1.59.28,2.9,2.9,0,0,1-2-.65,2.4,2.4,0,0,1-.72-1.87q0-2.59,4.15-2.72l1.45-.05v-.53a2.17,2.17,0,0,0-.43-1.49,1.79,1.79,0,0,0-1.39-.48,5.63,5.63,0,0,0-2.42.66l-.4-1a6.32,6.32,0,0,1,2.9-.74,3.28,3.28,0,0,1,2.27.68,2.86,2.86,0,0,1,.74,2.18v5.85Zm-2.93-.92a2.65,2.65,0,0,0,1.9-.66,2.47,2.47,0,0,0,.69-1.86v-.77l-1.3.05a4.83,4.83,0,0,0-2.23.48,1.45,1.45,0,0,0-.68,1.32,1.31,1.31,0,0,0,.43,1.07A1.73,1.73,0,0,0,395.11,289.16Z"/><path class="cls-5" d="M404.41,289.16a4.65,4.65,0,0,0,.66-.05,4.59,4.59,0,0,0,.51-.1v1a2.53,2.53,0,0,1-.62.17,5.12,5.12,0,0,1-.74.06c-1.65,0-2.48-.87-2.48-2.61v-5.1h-1.23v-.62l1.23-.54.54-1.83H403v2h2.49v1H403v5a1.76,1.76,0,0,0,.37,1.19A1.3,1.3,0,0,0,404.41,289.16Z"/><path class="cls-5" d="M412.82,290.08l-.26-1.22h-.06a3.74,3.74,0,0,1-1.28,1.09,3.94,3.94,0,0,1-1.59.28,2.92,2.92,0,0,1-2-.65,2.4,2.4,0,0,1-.72-1.87q0-2.59,4.15-2.72l1.45-.05v-.53a2.17,2.17,0,0,0-.43-1.49,1.79,1.79,0,0,0-1.39-.48,5.63,5.63,0,0,0-2.42.66l-.4-1a6.09,6.09,0,0,1,1.39-.54,6,6,0,0,1,1.51-.2,3.28,3.28,0,0,1,2.27.68,2.86,2.86,0,0,1,.74,2.18v5.85Zm-2.93-.92a2.65,2.65,0,0,0,1.9-.66,2.47,2.47,0,0,0,.69-1.86v-.77l-1.3.05a4.83,4.83,0,0,0-2.23.48,1.45,1.45,0,0,0-.68,1.32,1.31,1.31,0,0,0,.43,1.07A1.73,1.73,0,0,0,409.89,289.16Z"/><path class="cls-5" d="M420.33,281.37a3.17,3.17,0,0,1,2.62,1.16,6.17,6.17,0,0,1,0,6.53,3.16,3.16,0,0,1-2.61,1.17,3.64,3.64,0,0,1-1.53-.31,2.86,2.86,0,0,1-1.16-.95h-.09l-.27,1.11h-.93V277.92h1.29v2.95c0,.66,0,1.26-.06,1.78h.06A3.1,3.1,0,0,1,420.33,281.37Zm-.19,1.09a2.26,2.26,0,0,0-1.91.76,5.87,5.87,0,0,0,0,5.15,2.3,2.3,0,0,0,1.93.78,2,2,0,0,0,1.79-.87,4.53,4.53,0,0,0,.58-2.51,4.32,4.32,0,0,0-.58-2.49A2.09,2.09,0,0,0,420.14,282.46Z"/><path class="cls-5" d="M431.43,290.08l-.26-1.22h-.06a3.74,3.74,0,0,1-1.28,1.09,3.87,3.87,0,0,1-1.59.28,2.92,2.92,0,0,1-2-.65,2.4,2.4,0,0,1-.72-1.87q0-2.59,4.15-2.72l1.45-.05v-.53a2.17,2.17,0,0,0-.43-1.49,1.79,1.79,0,0,0-1.39-.48,5.63,5.63,0,0,0-2.42.66l-.4-1a6.09,6.09,0,0,1,1.39-.54,6,6,0,0,1,1.51-.2,3.28,3.28,0,0,1,2.27.68,2.86,2.86,0,0,1,.74,2.18v5.85Zm-2.93-.92a2.65,2.65,0,0,0,1.9-.66,2.47,2.47,0,0,0,.69-1.86v-.77l-1.3.05a4.83,4.83,0,0,0-2.23.48,1.45,1.45,0,0,0-.68,1.32,1.31,1.31,0,0,0,.43,1.07A1.73,1.73,0,0,0,428.5,289.16Z"/><path class="cls-5" d="M440.47,287.74a2.14,2.14,0,0,1-.89,1.84,4.13,4.13,0,0,1-2.5.65,5.44,5.44,0,0,1-2.66-.54v-1.2a6.38,6.38,0,0,0,1.33.49,5.47,5.47,0,0,0,1.36.18,3.13,3.13,0,0,0,1.56-.32,1.12,1.12,0,0,0,.12-1.85,7.46,7.46,0,0,0-1.7-.84,8.78,8.78,0,0,1-1.69-.77,2.26,2.26,0,0,1-.75-.76,1.88,1.88,0,0,1-.25-1,1.93,1.93,0,0,1,.85-1.66,4,4,0,0,1,2.34-.6,6.74,6.74,0,0,1,2.7.56l-.46,1.05a6.3,6.3,0,0,0-2.34-.53,2.74,2.74,0,0,0-1.39.29.9.9,0,0,0-.47.8,1,1,0,0,0,.18.59,1.87,1.87,0,0,0,.57.46,14.73,14.73,0,0,0,1.5.63,5.47,5.47,0,0,1,2.05,1.12A1.94,1.94,0,0,1,440.47,287.74Z"/><path class="cls-5" d="M446.2,290.23a3.93,3.93,0,0,1-3-1.15,4.51,4.51,0,0,1-1.1-3.21,4.94,4.94,0,0,1,1-3.29,3.36,3.36,0,0,1,2.74-1.22,3.23,3.23,0,0,1,2.55,1.06,4.05,4.05,0,0,1,.93,2.79V286h-5.89a3.38,3.38,0,0,0,.76,2.29,2.63,2.63,0,0,0,2,.78,6.81,6.81,0,0,0,2.74-.58v1.16a6.3,6.3,0,0,1-1.3.42A7.08,7.08,0,0,1,446.2,290.23Zm-.36-7.79a2.12,2.12,0,0,0-1.64.68,3,3,0,0,0-.72,1.85H448a2.86,2.86,0,0,0-.54-1.87A1.93,1.93,0,0,0,445.84,282.44Z"/><path class="cls-5" d="M484.58,270.88l-3.87-10.13h-.06c.07.8.11,1.76.11,2.86v7.27h-1.23V259.45h2l3.62,9.43h.06l3.65-9.43h2v11.43h-1.33v-7.36c0-.85,0-1.76.11-2.75h-.06l-3.9,10.11Z"/><path class="cls-5" d="M493.56,260a.85.85,0,0,1,.22-.65.81.81,0,0,1,1.09,0,.85.85,0,0,1,.22.65.84.84,0,0,1-.22.65.79.79,0,0,1-1.09,0A.84.84,0,0,1,493.56,260ZM495,270.88h-1.3v-8.57H495Z"/><path class="cls-5" d="M501,271a3.66,3.66,0,0,1-2.88-1.14,4.73,4.73,0,0,1-1-3.24,4.86,4.86,0,0,1,1-3.32,3.73,3.73,0,0,1,2.95-1.17,5.71,5.71,0,0,1,1.23.13,4.1,4.1,0,0,1,1,.31l-.4,1.1a5.78,5.78,0,0,0-.94-.28,3.84,3.84,0,0,0-.89-.12q-2.61,0-2.61,3.33a4,4,0,0,0,.63,2.42,2.22,2.22,0,0,0,1.89.85,5.75,5.75,0,0,0,2.2-.46v1.15A4.82,4.82,0,0,1,501,271Z"/><path class="cls-5" d="M509.06,262.16a5.23,5.23,0,0,1,1,.09l-.17,1.2a5,5,0,0,0-.94-.11,2.28,2.28,0,0,0-1.78.84,3.08,3.08,0,0,0-.74,2.1v4.6h-1.29v-8.57h1.07l.14,1.59h.07a3.71,3.71,0,0,1,1.14-1.29A2.61,2.61,0,0,1,509.06,262.16Z"/><path class="cls-5" d="M518.92,266.59a4.76,4.76,0,0,1-1,3.27A3.73,3.73,0,0,1,515,271a3.83,3.83,0,0,1-2-.54,3.51,3.51,0,0,1-1.38-1.54,5.46,5.46,0,0,1-.48-2.36,4.72,4.72,0,0,1,1-3.27,3.74,3.74,0,0,1,2.91-1.16,3.59,3.59,0,0,1,2.85,1.19A4.7,4.7,0,0,1,518.92,266.59Zm-6.52,0a4.07,4.07,0,0,0,.66,2.5A2.28,2.28,0,0,0,515,270a2.3,2.3,0,0,0,1.93-.86,4,4,0,0,0,.66-2.5,4,4,0,0,0-.66-2.48,2.65,2.65,0,0,0-3.87,0A4.06,4.06,0,0,0,512.4,266.59Z"/><path class="cls-5" d="M526.64,268.54a2.14,2.14,0,0,1-.89,1.84,4.13,4.13,0,0,1-2.5.65,5.44,5.44,0,0,1-2.66-.54v-1.2a6.38,6.38,0,0,0,1.33.49,5.47,5.47,0,0,0,1.36.18,3.13,3.13,0,0,0,1.56-.32,1.12,1.12,0,0,0,.12-1.85,7.46,7.46,0,0,0-1.7-.84,8.78,8.78,0,0,1-1.69-.77,2.26,2.26,0,0,1-.75-.76,2.07,2.07,0,0,1,.6-2.66,4,4,0,0,1,2.34-.6,6.74,6.74,0,0,1,2.7.56l-.46,1a6.3,6.3,0,0,0-2.34-.53,2.72,2.72,0,0,0-1.39.29.9.9,0,0,0-.47.8.93.93,0,0,0,.18.58,1.74,1.74,0,0,0,.57.47,14.73,14.73,0,0,0,1.5.63,5.63,5.63,0,0,1,2.05,1.11A2,2,0,0,1,526.64,268.54Z"/><path class="cls-5" d="M532.37,271a3.93,3.93,0,0,1-3-1.15,4.49,4.49,0,0,1-1.1-3.22,5,5,0,0,1,1-3.28,3.36,3.36,0,0,1,2.74-1.22,3.26,3.26,0,0,1,2.55,1,4.1,4.1,0,0,1,.93,2.8v.82h-5.89a3.38,3.38,0,0,0,.76,2.29,2.63,2.63,0,0,0,2,.78,6.85,6.85,0,0,0,2.74-.58v1.16a6.3,6.3,0,0,1-1.3.42A7.08,7.08,0,0,1,532.37,271Zm-.36-7.79a2.15,2.15,0,0,0-1.64.67,3.08,3.08,0,0,0-.72,1.86h4.47a2.9,2.9,0,0,0-.54-1.88A2,2,0,0,0,532,263.24Z"/><path class="cls-5" d="M541.56,262.16a5.23,5.23,0,0,1,1,.09l-.18,1.2a5,5,0,0,0-.94-.11,2.31,2.31,0,0,0-1.78.84,3.07,3.07,0,0,0-.73,2.1v4.6h-1.3v-8.57h1.07l.15,1.59h.06a3.73,3.73,0,0,1,1.15-1.29A2.61,2.61,0,0,1,541.56,262.16Z"/><path class="cls-5" d="M546.83,270.88l-3.25-8.57H545l1.84,5.08c.42,1.19.66,2,.74,2.31h.06q.09-.4.54-1.71t2.05-5.68h1.39l-3.25,8.57Z"/><path class="cls-5" d="M553.05,260a.89.89,0,0,1,.22-.65.81.81,0,0,1,1.09,0,.86.86,0,0,1,.23.65.84.84,0,0,1-.23.65.79.79,0,0,1-1.09,0A.88.88,0,0,1,553.05,260Zm1.41,10.89h-1.3v-8.57h1.3Z"/><path class="cls-5" d="M560.53,271a3.66,3.66,0,0,1-2.88-1.14,4.73,4.73,0,0,1-1-3.24,4.85,4.85,0,0,1,1-3.32,3.74,3.74,0,0,1,3-1.17,5.81,5.81,0,0,1,1.24.13,4.26,4.26,0,0,1,1,.31l-.4,1.1a6.1,6.1,0,0,0-.94-.28,4,4,0,0,0-.9-.12q-2.61,0-2.61,3.33a3.9,3.9,0,0,0,.64,2.42,2.19,2.19,0,0,0,1.89.85,5.7,5.7,0,0,0,2.19-.46v1.15A4.74,4.74,0,0,1,560.53,271Z"/><path class="cls-5" d="M568.12,271a3.93,3.93,0,0,1-3-1.15,4.45,4.45,0,0,1-1.1-3.22,5,5,0,0,1,1-3.28,3.36,3.36,0,0,1,2.74-1.22,3.22,3.22,0,0,1,2.54,1,4.05,4.05,0,0,1,.94,2.8v.82h-5.9a3.43,3.43,0,0,0,.76,2.29,2.65,2.65,0,0,0,2,.78,6.8,6.8,0,0,0,2.73-.58v1.16a6.11,6.11,0,0,1-1.3.42A7,7,0,0,1,568.12,271Zm-.35-7.79a2.13,2.13,0,0,0-1.64.67,3.15,3.15,0,0,0-.73,1.86h4.48a2.85,2.85,0,0,0-.55-1.88A1.92,1.92,0,0,0,567.77,263.24Z"/><path class="cls-5" d="M500.57,284.26a5.78,5.78,0,0,1-1.53,4.32,6.08,6.08,0,0,1-4.42,1.5h-3.16V278.65H495a5.12,5.12,0,0,1,5.61,5.61Zm-1.4,0a4.6,4.6,0,0,0-1.12-3.36,4.49,4.49,0,0,0-3.34-1.14h-1.93v9.13h1.62a4.92,4.92,0,0,0,3.57-1.17A4.62,4.62,0,0,0,499.17,284.3Z"/><path class="cls-5" d="M508,290.08l-.26-1.22h-.06a3.74,3.74,0,0,1-1.28,1.09,3.94,3.94,0,0,1-1.59.28,2.9,2.9,0,0,1-2-.65,2.4,2.4,0,0,1-.72-1.87q0-2.59,4.15-2.72l1.45-.05v-.53a2.17,2.17,0,0,0-.43-1.49,1.79,1.79,0,0,0-1.39-.48,5.63,5.63,0,0,0-2.42.66l-.4-1a6.32,6.32,0,0,1,2.9-.74,3.28,3.28,0,0,1,2.27.68,2.86,2.86,0,0,1,.74,2.18v5.85Zm-2.93-.92a2.65,2.65,0,0,0,1.9-.66,2.47,2.47,0,0,0,.69-1.86v-.77l-1.3.05a4.83,4.83,0,0,0-2.23.48,1.45,1.45,0,0,0-.68,1.32,1.31,1.31,0,0,0,.43,1.07A1.73,1.73,0,0,0,505.11,289.16Z"/><path class="cls-5" d="M514.41,289.16a4.65,4.65,0,0,0,.66-.05,4.59,4.59,0,0,0,.51-.1v1a2.53,2.53,0,0,1-.62.17,5.12,5.12,0,0,1-.74.06c-1.65,0-2.48-.87-2.48-2.61v-5.1h-1.23v-.62l1.23-.54.54-1.83H513v2h2.49v1H513v5a1.76,1.76,0,0,0,.37,1.19A1.3,1.3,0,0,0,514.41,289.16Z"/><path class="cls-5" d="M522.82,290.08l-.26-1.22h-.06a3.74,3.74,0,0,1-1.28,1.09,3.94,3.94,0,0,1-1.59.28,2.92,2.92,0,0,1-2-.65,2.4,2.4,0,0,1-.72-1.87q0-2.59,4.15-2.72l1.45-.05v-.53a2.17,2.17,0,0,0-.43-1.49,1.79,1.79,0,0,0-1.39-.48,5.63,5.63,0,0,0-2.42.66l-.4-1a6.09,6.09,0,0,1,1.39-.54,6,6,0,0,1,1.51-.2,3.28,3.28,0,0,1,2.27.68,2.86,2.86,0,0,1,.74,2.18v5.85Zm-2.93-.92a2.65,2.65,0,0,0,1.9-.66,2.47,2.47,0,0,0,.69-1.86v-.77l-1.3.05a4.83,4.83,0,0,0-2.23.48,1.45,1.45,0,0,0-.68,1.32,1.31,1.31,0,0,0,.43,1.07A1.73,1.73,0,0,0,519.89,289.16Z"/><path class="cls-5" d="M530.33,281.37a3.17,3.17,0,0,1,2.62,1.16,6.17,6.17,0,0,1,0,6.53,3.16,3.16,0,0,1-2.61,1.17,3.64,3.64,0,0,1-1.53-.31,2.86,2.86,0,0,1-1.16-.95h-.09l-.27,1.11h-.93V277.92h1.29v2.95c0,.66,0,1.26-.06,1.78h.06A3.1,3.1,0,0,1,530.33,281.37Zm-.19,1.09a2.26,2.26,0,0,0-1.91.76,5.87,5.87,0,0,0,0,5.15,2.3,2.3,0,0,0,1.93.78,2,2,0,0,0,1.79-.87,4.53,4.53,0,0,0,.58-2.51,4.32,4.32,0,0,0-.58-2.49A2.09,2.09,0,0,0,530.14,282.46Z"/><path class="cls-5" d="M541.43,290.08l-.26-1.22h-.06a3.74,3.74,0,0,1-1.28,1.09,3.87,3.87,0,0,1-1.59.28,2.92,2.92,0,0,1-2-.65,2.4,2.4,0,0,1-.72-1.87q0-2.59,4.15-2.72l1.45-.05v-.53a2.17,2.17,0,0,0-.43-1.49,1.79,1.79,0,0,0-1.39-.48,5.63,5.63,0,0,0-2.42.66l-.4-1a6.09,6.09,0,0,1,1.39-.54,6,6,0,0,1,1.51-.2,3.28,3.28,0,0,1,2.27.68,2.86,2.86,0,0,1,.74,2.18v5.85Zm-2.93-.92a2.65,2.65,0,0,0,1.9-.66,2.47,2.47,0,0,0,.69-1.86v-.77l-1.3.05a4.83,4.83,0,0,0-2.23.48,1.45,1.45,0,0,0-.68,1.32,1.31,1.31,0,0,0,.43,1.07A1.73,1.73,0,0,0,538.5,289.16Z"/><path class="cls-5" d="M550.47,287.74a2.14,2.14,0,0,1-.89,1.84,4.13,4.13,0,0,1-2.5.65,5.44,5.44,0,0,1-2.66-.54v-1.2a6.38,6.38,0,0,0,1.33.49,5.47,5.47,0,0,0,1.36.18,3.13,3.13,0,0,0,1.56-.32,1.12,1.12,0,0,0,.12-1.85,7.46,7.46,0,0,0-1.7-.84,8.78,8.78,0,0,1-1.69-.77,2.26,2.26,0,0,1-.75-.76,1.88,1.88,0,0,1-.25-1,1.93,1.93,0,0,1,.85-1.66,4,4,0,0,1,2.34-.6,6.74,6.74,0,0,1,2.7.56l-.46,1.05a6.3,6.3,0,0,0-2.34-.53,2.74,2.74,0,0,0-1.39.29.9.9,0,0,0-.47.8,1,1,0,0,0,.18.59,1.87,1.87,0,0,0,.57.46,14.73,14.73,0,0,0,1.5.63,5.47,5.47,0,0,1,2,1.12A1.94,1.94,0,0,1,550.47,287.74Z"/><path class="cls-5" d="M556.2,290.23a3.93,3.93,0,0,1-3-1.15,4.51,4.51,0,0,1-1.1-3.21,4.94,4.94,0,0,1,1-3.29,3.36,3.36,0,0,1,2.74-1.22,3.23,3.23,0,0,1,2.55,1.06,4.05,4.05,0,0,1,.93,2.79V286h-5.89a3.38,3.38,0,0,0,.76,2.29,2.63,2.63,0,0,0,2,.78,6.81,6.81,0,0,0,2.74-.58v1.16a6.3,6.3,0,0,1-1.3.42A7.08,7.08,0,0,1,556.2,290.23Zm-.36-7.79a2.12,2.12,0,0,0-1.64.68,3,3,0,0,0-.72,1.85H558a2.86,2.86,0,0,0-.54-1.87A1.93,1.93,0,0,0,555.84,282.44Z"/><path class="cls-5" d="M594.58,270.88l-3.87-10.13h-.06c.07.8.11,1.76.11,2.86v7.27h-1.23V259.45h2l3.62,9.43h.06l3.65-9.43h2v11.43h-1.33v-7.36c0-.85,0-1.76.11-2.75h-.06l-3.9,10.11Z"/><path class="cls-5" d="M603.56,260a.85.85,0,0,1,.22-.65.81.81,0,0,1,1.09,0,.85.85,0,0,1,.22.65.84.84,0,0,1-.22.65.79.79,0,0,1-1.09,0A.84.84,0,0,1,603.56,260ZM605,270.88h-1.3v-8.57H605Z"/><path class="cls-5" d="M611,271a3.66,3.66,0,0,1-2.88-1.14,4.73,4.73,0,0,1-1-3.24,4.86,4.86,0,0,1,1-3.32,3.73,3.73,0,0,1,3-1.17,5.71,5.71,0,0,1,1.23.13,4.1,4.1,0,0,1,1,.31l-.4,1.1a5.78,5.78,0,0,0-.94-.28,3.84,3.84,0,0,0-.89-.12q-2.61,0-2.61,3.33a4,4,0,0,0,.63,2.42,2.22,2.22,0,0,0,1.89.85,5.75,5.75,0,0,0,2.2-.46v1.15A4.82,4.82,0,0,1,611,271Z"/><path class="cls-5" d="M619.06,262.16a5.23,5.23,0,0,1,1,.09l-.17,1.2a5,5,0,0,0-.94-.11,2.28,2.28,0,0,0-1.78.84,3.08,3.08,0,0,0-.74,2.1v4.6h-1.29v-8.57h1.07l.14,1.59h.07a3.71,3.71,0,0,1,1.14-1.29A2.61,2.61,0,0,1,619.06,262.16Z"/><path class="cls-5" d="M628.92,266.59a4.76,4.76,0,0,1-1,3.27A3.73,3.73,0,0,1,625,271a3.83,3.83,0,0,1-2-.54,3.51,3.51,0,0,1-1.38-1.54,5.46,5.46,0,0,1-.48-2.36,4.72,4.72,0,0,1,1-3.27,3.74,3.74,0,0,1,2.91-1.16,3.59,3.59,0,0,1,2.85,1.19A4.7,4.7,0,0,1,628.92,266.59Zm-6.52,0a4.07,4.07,0,0,0,.66,2.5A2.28,2.28,0,0,0,625,270a2.3,2.3,0,0,0,1.93-.86,4,4,0,0,0,.66-2.5,4,4,0,0,0-.66-2.48,2.65,2.65,0,0,0-3.87,0A4.06,4.06,0,0,0,622.4,266.59Z"/><path class="cls-5" d="M636.64,268.54a2.14,2.14,0,0,1-.89,1.84,4.13,4.13,0,0,1-2.5.65,5.44,5.44,0,0,1-2.66-.54v-1.2a6.38,6.38,0,0,0,1.33.49,5.47,5.47,0,0,0,1.36.18,3.13,3.13,0,0,0,1.56-.32,1.12,1.12,0,0,0,.12-1.85,7.46,7.46,0,0,0-1.7-.84,8.78,8.78,0,0,1-1.69-.77,2.26,2.26,0,0,1-.75-.76,2.07,2.07,0,0,1,.6-2.66,4,4,0,0,1,2.34-.6,6.74,6.74,0,0,1,2.7.56l-.46,1a6.3,6.3,0,0,0-2.34-.53,2.72,2.72,0,0,0-1.39.29.9.9,0,0,0-.47.8.93.93,0,0,0,.18.58,1.74,1.74,0,0,0,.57.47,14.73,14.73,0,0,0,1.5.63,5.63,5.63,0,0,1,2.05,1.11A2,2,0,0,1,636.64,268.54Z"/><path class="cls-5" d="M642.37,271a3.93,3.93,0,0,1-3-1.15,4.49,4.49,0,0,1-1.1-3.22,5,5,0,0,1,1-3.28,3.36,3.36,0,0,1,2.74-1.22,3.26,3.26,0,0,1,2.55,1,4.1,4.1,0,0,1,.93,2.8v.82h-5.89a3.38,3.38,0,0,0,.76,2.29,2.63,2.63,0,0,0,2,.78,6.85,6.85,0,0,0,2.74-.58v1.16a6.3,6.3,0,0,1-1.3.42A7.08,7.08,0,0,1,642.37,271Zm-.36-7.79a2.15,2.15,0,0,0-1.64.67,3.08,3.08,0,0,0-.72,1.86h4.47a2.9,2.9,0,0,0-.54-1.88A2,2,0,0,0,642,263.24Z"/><path class="cls-5" d="M651.56,262.16a5.23,5.23,0,0,1,1,.09l-.18,1.2a5,5,0,0,0-.94-.11,2.31,2.31,0,0,0-1.78.84,3.07,3.07,0,0,0-.73,2.1v4.6h-1.3v-8.57h1.07l.15,1.59h.06a3.73,3.73,0,0,1,1.15-1.29A2.61,2.61,0,0,1,651.56,262.16Z"/><path class="cls-5" d="M656.83,270.88l-3.25-8.57H655l1.84,5.08c.42,1.19.66,2,.74,2.31h.06q.09-.4.54-1.71t2.05-5.68h1.39l-3.25,8.57Z"/><path class="cls-5" d="M663.05,260a.89.89,0,0,1,.22-.65.81.81,0,0,1,1.09,0,.86.86,0,0,1,.23.65.84.84,0,0,1-.23.65.79.79,0,0,1-1.09,0A.88.88,0,0,1,663.05,260Zm1.41,10.89h-1.3v-8.57h1.3Z"/><path class="cls-5" d="M670.53,271a3.66,3.66,0,0,1-2.88-1.14,4.73,4.73,0,0,1-1-3.24,4.85,4.85,0,0,1,1-3.32,3.74,3.74,0,0,1,3-1.17,5.81,5.81,0,0,1,1.24.13,4.26,4.26,0,0,1,1,.31l-.4,1.1a6.1,6.1,0,0,0-.94-.28,4,4,0,0,0-.9-.12q-2.61,0-2.61,3.33a3.9,3.9,0,0,0,.64,2.42,2.19,2.19,0,0,0,1.89.85,5.7,5.7,0,0,0,2.19-.46v1.15A4.74,4.74,0,0,1,670.53,271Z"/><path class="cls-5" d="M678.12,271a3.93,3.93,0,0,1-3-1.15,4.45,4.45,0,0,1-1.1-3.22,5,5,0,0,1,1-3.28,3.36,3.36,0,0,1,2.74-1.22,3.22,3.22,0,0,1,2.54,1,4.05,4.05,0,0,1,.94,2.8v.82h-5.9a3.43,3.43,0,0,0,.76,2.29,2.65,2.65,0,0,0,2,.78,6.8,6.8,0,0,0,2.73-.58v1.16a6.11,6.11,0,0,1-1.3.42A7,7,0,0,1,678.12,271Zm-.35-7.79a2.13,2.13,0,0,0-1.64.67,3.15,3.15,0,0,0-.73,1.86h4.48a2.85,2.85,0,0,0-.55-1.88A1.92,1.92,0,0,0,677.77,263.24Z"/><path class="cls-5" d="M610.57,284.26a5.78,5.78,0,0,1-1.53,4.32,6.08,6.08,0,0,1-4.42,1.5h-3.16V278.65H605a5.12,5.12,0,0,1,5.61,5.61Zm-1.4,0a4.6,4.6,0,0,0-1.12-3.36,4.49,4.49,0,0,0-3.34-1.14h-1.93v9.13h1.62a4.92,4.92,0,0,0,3.57-1.17A4.62,4.62,0,0,0,609.17,284.3Z"/><path class="cls-5" d="M618,290.08l-.26-1.22h-.06a3.74,3.74,0,0,1-1.28,1.09,3.94,3.94,0,0,1-1.59.28,2.9,2.9,0,0,1-2-.65,2.4,2.4,0,0,1-.72-1.87q0-2.59,4.15-2.72l1.45-.05v-.53a2.17,2.17,0,0,0-.43-1.49,1.79,1.79,0,0,0-1.39-.48,5.63,5.63,0,0,0-2.42.66l-.4-1a6.32,6.32,0,0,1,2.9-.74,3.28,3.28,0,0,1,2.27.68,2.86,2.86,0,0,1,.74,2.18v5.85Zm-2.93-.92a2.65,2.65,0,0,0,1.9-.66,2.47,2.47,0,0,0,.69-1.86v-.77l-1.3.05a4.83,4.83,0,0,0-2.23.48,1.45,1.45,0,0,0-.68,1.32,1.31,1.31,0,0,0,.43,1.07A1.73,1.73,0,0,0,615.11,289.16Z"/><path class="cls-5" d="M624.41,289.16a4.65,4.65,0,0,0,.66-.05,4.59,4.59,0,0,0,.51-.1v1a2.53,2.53,0,0,1-.62.17,5.12,5.12,0,0,1-.74.06c-1.65,0-2.48-.87-2.48-2.61v-5.1h-1.23v-.62l1.23-.54.54-1.83H623v2h2.49v1H623v5a1.76,1.76,0,0,0,.37,1.19A1.3,1.3,0,0,0,624.41,289.16Z"/><path class="cls-5" d="M632.82,290.08l-.26-1.22h-.06a3.74,3.74,0,0,1-1.28,1.09,3.94,3.94,0,0,1-1.59.28,2.92,2.92,0,0,1-2-.65,2.4,2.4,0,0,1-.72-1.87q0-2.59,4.15-2.72l1.45-.05v-.53a2.17,2.17,0,0,0-.43-1.49,1.79,1.79,0,0,0-1.39-.48,5.63,5.63,0,0,0-2.42.66l-.4-1a6.09,6.09,0,0,1,1.39-.54,6,6,0,0,1,1.51-.2,3.28,3.28,0,0,1,2.27.68,2.86,2.86,0,0,1,.74,2.18v5.85Zm-2.93-.92a2.65,2.65,0,0,0,1.9-.66,2.47,2.47,0,0,0,.69-1.86v-.77l-1.3.05a4.83,4.83,0,0,0-2.23.48,1.45,1.45,0,0,0-.68,1.32,1.31,1.31,0,0,0,.43,1.07A1.73,1.73,0,0,0,629.89,289.16Z"/><path class="cls-5" d="M640.33,281.37a3.17,3.17,0,0,1,2.62,1.16,6.17,6.17,0,0,1,0,6.53,3.16,3.16,0,0,1-2.61,1.17,3.64,3.64,0,0,1-1.53-.31,2.86,2.86,0,0,1-1.16-.95h-.09l-.27,1.11h-.93V277.92h1.29v2.95c0,.66,0,1.26-.06,1.78h.06A3.1,3.1,0,0,1,640.33,281.37Zm-.19,1.09a2.26,2.26,0,0,0-1.91.76,5.87,5.87,0,0,0,0,5.15,2.3,2.3,0,0,0,1.93.78,2,2,0,0,0,1.79-.87,4.53,4.53,0,0,0,.58-2.51,4.32,4.32,0,0,0-.58-2.49A2.09,2.09,0,0,0,640.14,282.46Z"/><path class="cls-5" d="M651.43,290.08l-.26-1.22h-.06a3.74,3.74,0,0,1-1.28,1.09,3.87,3.87,0,0,1-1.59.28,2.92,2.92,0,0,1-2-.65,2.4,2.4,0,0,1-.72-1.87q0-2.59,4.15-2.72l1.45-.05v-.53a2.17,2.17,0,0,0-.43-1.49,1.79,1.79,0,0,0-1.39-.48,5.63,5.63,0,0,0-2.42.66l-.4-1a6.09,6.09,0,0,1,1.39-.54,6,6,0,0,1,1.51-.2,3.28,3.28,0,0,1,2.27.68,2.86,2.86,0,0,1,.74,2.18v5.85Zm-2.93-.92a2.65,2.65,0,0,0,1.9-.66,2.47,2.47,0,0,0,.69-1.86v-.77l-1.3.05a4.83,4.83,0,0,0-2.23.48,1.45,1.45,0,0,0-.68,1.32,1.31,1.31,0,0,0,.43,1.07A1.73,1.73,0,0,0,648.5,289.16Z"/><path class="cls-5" d="M660.47,287.74a2.14,2.14,0,0,1-.89,1.84,4.13,4.13,0,0,1-2.5.65,5.44,5.44,0,0,1-2.66-.54v-1.2a6.38,6.38,0,0,0,1.33.49,5.47,5.47,0,0,0,1.36.18,3.13,3.13,0,0,0,1.56-.32,1.12,1.12,0,0,0,.12-1.85,7.46,7.46,0,0,0-1.7-.84,8.78,8.78,0,0,1-1.69-.77,2.26,2.26,0,0,1-.75-.76,1.88,1.88,0,0,1-.25-1,1.93,1.93,0,0,1,.85-1.66,4,4,0,0,1,2.34-.6,6.74,6.74,0,0,1,2.7.56l-.46,1.05a6.3,6.3,0,0,0-2.34-.53,2.74,2.74,0,0,0-1.39.29.9.9,0,0,0-.47.8,1,1,0,0,0,.18.59,1.87,1.87,0,0,0,.57.46,14.73,14.73,0,0,0,1.5.63,5.47,5.47,0,0,1,2,1.12A1.94,1.94,0,0,1,660.47,287.74Z"/><path class="cls-5" d="M666.2,290.23a3.93,3.93,0,0,1-3-1.15,4.51,4.51,0,0,1-1.1-3.21,4.94,4.94,0,0,1,1-3.29,3.36,3.36,0,0,1,2.74-1.22,3.23,3.23,0,0,1,2.55,1.06,4.05,4.05,0,0,1,.93,2.79V286h-5.89a3.38,3.38,0,0,0,.76,2.29,2.63,2.63,0,0,0,2,.78,6.81,6.81,0,0,0,2.74-.58v1.16a6.3,6.3,0,0,1-1.3.42A7.08,7.08,0,0,1,666.2,290.23Zm-.36-7.79a2.12,2.12,0,0,0-1.64.68,3,3,0,0,0-.72,1.85H668a2.86,2.86,0,0,0-.54-1.87A1.93,1.93,0,0,0,665.84,282.44Z"/><line class="cls-7" x1="304.53" y1="190.52" x2="304.53" y2="236.24"/><polygon class="cls-8" points="301.14 232.25 304.53 235.65 307.92 232.25 307.92 235.13 304.53 238.52 301.14 235.13 301.14 232.25"/><line class="cls-7" x1="414.53" y1="190.52" x2="414.53" y2="236.24"/><polygon class="cls-8" points="411.14 232.25 414.53 235.65 417.92 232.25 417.92 235.13 414.53 238.52 411.14 235.13 411.14 232.25"/><line class="cls-7" x1="524.53" y1="190.52" x2="524.53" y2="236.24"/><polygon class="cls-8" points="521.14 232.25 524.53 235.65 527.92 232.25 527.92 235.13 524.53 238.52 521.14 235.13 521.14 232.25"/><line class="cls-7" x1="634.53" y1="190.52" x2="634.53" y2="236.24"/><polygon class="cls-8" points="631.14 232.25 634.53 235.65 637.92 232.25 637.92 235.13 634.53 238.52 631.14 235.13 631.14 232.25"/><line class="cls-7" x1="304.53" y1="106.52" x2="304.53" y2="152.24"/><polygon class="cls-8" points="301.14 148.25 304.53 151.65 307.92 148.25 307.92 151.13 304.53 154.52 301.14 151.13 301.14 148.25"/><line class="cls-7" x1="118.53" y1="106.52" x2="118.53" y2="152.24"/><polygon class="cls-8" points="115.14 148.25 118.53 151.65 121.92 148.25 121.92 151.13 118.53 154.52 115.14 151.13 115.14 148.25"/><line class="cls-7" x1="118.53" y1="190.52" x2="118.53" y2="236.24"/><polygon class="cls-8" points="115.14 232.25 118.53 235.65 121.92 232.25 121.92 235.13 118.53 238.52 115.14 235.13 115.14 232.25"/><line class="cls-7" x1="414.53" y1="106.52" x2="414.53" y2="152.24"/><polygon class="cls-8" points="411.14 148.25 414.53 151.65 417.92 148.25 417.92 151.13 414.53 154.52 411.14 151.13 411.14 148.25"/><line class="cls-7" x1="524.53" y1="106.52" x2="524.53" y2="152.24"/><polygon class="cls-8" points="521.14 148.25 524.53 151.65 527.92 148.25 527.92 151.13 524.53 154.52 521.14 151.13 521.14 148.25"/><line class="cls-7" x1="634.53" y1="106.52" x2="634.53" y2="152.24"/><polygon class="cls-8" points="631.14 148.25 634.53 151.65 637.92 148.25 637.92 151.13 634.53 154.52 631.14 151.13 631.14 148.25"/></svg>